<mxfile host="app.diagrams.net" agent="Mozilla/5.0 (X11; Linux x86_64; rv:144.0) Gecko/20100101 Firefox/144.0" version="28.2.7" pages="8">
  <diagram name="flow-description" id="I-wuxqv6vUOS9k4Ooz61">
    <mxGraphModel dx="679" dy="364" grid="1" gridSize="10" guides="1" tooltips="1" connect="1" arrows="1" fold="1" page="1" pageScale="1" pageWidth="850" pageHeight="1100" math="0" shadow="0">
      <root>
        <mxCell id="0" />
        <mxCell id="1" parent="0" />
        <mxCell id="rlsA8ZojPqT0Ke0vseff-1" value="&amp;lt;create-owners&amp;gt;" style="ellipse;whiteSpace=wrap;html=1;strokeColor=none;fillColor=#d5e8d4;" vertex="1" parent="1">
          <mxGeometry x="60.75" y="158" width="130" height="45" as="geometry" />
        </mxCell>
        <mxCell id="rlsA8ZojPqT0Ke0vseff-2" style="edgeStyle=orthogonalEdgeStyle;rounded=0;orthogonalLoop=1;jettySize=auto;html=1;entryX=1;entryY=0.5;entryDx=0;entryDy=0;curved=1;strokeWidth=4;fillColor=#d0cee2;strokeColor=#56517e;" edge="1" parent="1" source="rlsA8ZojPqT0Ke0vseff-4" target="rlsA8ZojPqT0Ke0vseff-1">
          <mxGeometry relative="1" as="geometry" />
        </mxCell>
        <mxCell id="rlsA8ZojPqT0Ke0vseff-3" style="edgeStyle=orthogonalEdgeStyle;rounded=0;orthogonalLoop=1;jettySize=auto;html=1;entryX=1;entryY=0.5;entryDx=0;entryDy=0;curved=1;strokeWidth=4;fillColor=#d0cee2;strokeColor=#56517e;" edge="1" parent="1" source="rlsA8ZojPqT0Ke0vseff-4" target="rlsA8ZojPqT0Ke0vseff-11">
          <mxGeometry relative="1" as="geometry" />
        </mxCell>
        <mxCell id="rlsA8ZojPqT0Ke0vseff-4" value="" style="rounded=1;whiteSpace=wrap;html=1;strokeColor=none;fillColor=#d5e8d4;" vertex="1" parent="1">
          <mxGeometry x="278.75" y="177" width="60" height="80" as="geometry" />
        </mxCell>
        <mxCell id="rlsA8ZojPqT0Ke0vseff-5" value="" style="shape=image;editableCssRules=.*;verticalLabelPosition=bottom;labelBackgroundColor=default;verticalAlign=top;aspect=fixed;imageAspect=0;image=data:image/svg+xml,PHN2ZyB4bWxucz0iaHR0cDovL3d3dy53My5vcmcvMjAwMC9zdmciIHZpZXdCb3g9Ii0wLjUgLTAuNSA0MC45NDEgNDUuMDg4IiBoZWlnaHQ9IjQ1LjA4OCIgd2lkdGg9IjQwLjk0MSIgc3R5bGU9ImNvbG9yLXNjaGVtZTogbGlnaHQgZGFyazsiPiYjeGE7CSAgPHN0eWxlIHR5cGU9InRleHQvY3NzIj4uc3QwIHsgc3RvcC1jb2xvcjogbGlnaHQtZGFyayhyZ2IoMCwgMCwgMCksIHJnYigxNTUsIDExOCwgMjU1KSk7IH0gLnN0MSB7IHN0b3AtY29sb3I6IGxpZ2h0LWRhcmsocmdiKDAsIDAsIDApLCByZ2IoNzEsIDEyLCAyMzcpKTsgfSA8L3N0eWxlPiYjeGE7CTxkZWZzPiYjeGE7CQk8bGluZWFyR3JhZGllbnQgZ3JhZGllbnRVbml0cz0idXNlclNwYWNlT25Vc2UiIHkyPSIzNy43MzgiIHgyPSIzNy42MDIiIHkxPSI1LjkiIHgxPSIzLjIxMyIgaWQ9IkEiPiYjeGE7CQkJPHN0b3AgY2xhc3M9InN0MCIvPiYjeGE7CQkJPHN0b3AgY2xhc3M9InN0MSIgb2Zmc2V0PSIxIi8+JiN4YTsJCTwvbGluZWFyR3JhZGllbnQ+JiN4YTsJPC9kZWZzPiYjeGE7CTxwYXRoIGZpbGw9InVybCgjQSkiIGQ9Ik0zOC4xNDcgNC4wODhjLjcwNi41ODggMS4yNjUgMS4yMzUgMS42NzYgMS45NDEuNDEyLjY0Ny42MTggMS40NDEuNjE4IDIuMzgydjI3LjM1M2MwIC44ODItLjIzNSAxLjY3Ni0uNzA2IDIuMzgycy0xIDEuMzUzLTEuNTg4IDEuOTQxYy0uNTI5LjQ3MS0xLjIwNi45MTItMi4wMyAxLjMyNC0uNzY1LjQxMi0xLjU4OC43OTQtMi40NzEgMS4xNDctMS44MjMuNzA2LTMuOTEyIDEuMjA2LTYuMjY1IDEuNS0yLjI5NC4zNTMtNC43NjUuNTI5LTcuNDEyLjUyOXMtNS4xNDctLjE3Ni03LjUtLjUyOWMtMi4yOTQtLjI5NC00LjM1My0uNzk0LTYuMTc2LTEuNWwtMi40NzEtLjk3YTguNjQgOC42NCAwIDAgMS0yLjAyOS0xLjVDLjI2NSAzOC44NTMtLjUgMzcuNDEyLS41IDM1Ljc2NVY4LjQxMmMwLS45NDEuMjM1LTEuNzM1LjcwNi0yLjM4Mi40NzEtLjcwNiAxLTEuMzUzIDEuNTg4LTEuOTQxIDEuMTc2LTEgMi42NzYtMS44NTMgNC41LTIuNTU5QzguMTE4Ljg4MiAxMC4xNzYuMzgyIDEyLjQ3MS4wMjljMi4zNTMtLjM1MyA0Ljg1My0uNTI5IDcuNS0uNTI5czUuMTE4LjE3NiA3LjQxMi41MjljMi4zNTMuMzUzIDQuNDQxLjg1MyA2LjI2NSAxLjUuODgyLjM1MyAxLjcwNi43MzUgMi40NzEgMS4xNDcuODI0LjM1MyAxLjUuODI0IDIuMDMgMS40MTJ6bS0yLjIwNiAxOS4zMjRjLTIuNzY1Ljk0MS01LjM4MiAxLjY3Ni03Ljg1MyAyLjIwNi0yLjQxMi41MjktNS4xMTguNzk0LTguMTE4Ljc5NC0yLjY0NyAwLTUuMTQ3LS4xNzctNy41LS41MjktMi4yOTQtLjM1My00LjM1My0uODUzLTYuMTc2LTEuNS0uOTQxLS4yOTQtMS43MDYtLjYxOC0yLjI5NC0uOTcxdjMuMTc3bC4xNzYuMzUzYy4wNTkuMTE4LjIzNS4zMjQuNTI5LjYxOC43NjUuNzA2IDEuNzk0IDEuMjk0IDMuMDg4IDEuNzY1IDEuMzUzLjQ3MSAyLjc2NS44NTMgNC4yMzUgMS4xNDdsNC4zMjQuNTI5IDMuNjE4LjE3NmE1MC40NSA1MC40NSAwIDAgMCA3Ljk0MS0uNjE4YzIuNTg4LS40NyA1LjAyOS0xLjQ3IDcuMzIzLTMgLjM1My0uMjM1LjU1OS0uNDQxLjYxOC0uNjE4LjA1OS0uMTE4LjA4OC0uMjM1LjA4OC0uMzUzem0wLTkuMDg4Yy0yLjc2NS45NDEtNS4zODIgMS42NzYtNy44NTMgMi4yMDYtMi40MTIuNTI5LTUuMTE4Ljc5NC04LjExOC43OTQtLjg4MiAwLTIuMDU5LS4wNTktMy41MjktLjE3NmwtNC41ODgtLjUyOS00LjUtLjg4MmMtMS40MTItLjQxMi0yLjUyOS0uODgyLTMuMzUzLTEuNDEyVjE3LjVjMCAuMDU5LjAyOS4xNDcuMDg4LjI2NS4xMTguMDU5LjIwNi4xNDcuMjY1LjI2NWwuMzUzLjM1M2MuNzY1Ljc2NSAxLjc5NCAxLjM4MiAzLjA4OCAxLjg1MyAxLjM1My40NzEgMi43NjUuODUzIDQuMjM1IDEuMTQ3bDQuMzI0LjUyOSAzLjYxOC4xNzZjMi43MDYgMCA1LjM1My0uMjM1IDcuOTQxLS43MDZzNS4wMjktMS40NzEgNy4zMjMtM2MuMzUzLS4yMzUuNTU5LS40NDEuNjE4LS42MTguMDU5LS4xMTguMDg4LS4yMDYuMDg4LS4yNjV6TTQuNzA2IDcuNTI5Yy0uMjk0LjExOC0uNS4zMjQtLjYxOC42MTgtLjA1OS4xMTgtLjA4OC4yMDYtLjA4OC4yNjVzLjAyOS4xNDcuMDg4LjI2NWMuMTE4LjA1OS4yMDYuMTQ3LjI2NS4yNjVsLjM1My4zNTNjLjc2NS43NjUgMS43OTQgMS4zODIgMy4wODggMS44NTMgMS4zNTMuNDcxIDIuNzY1Ljg1MyA0LjIzNSAxLjE0N2w0LjMyNC41MjkgMy42MTguMTc2YzIuNDEyIDAgNC42NDctLjE0NyA2LjcwNi0uNDQxIDIuMDU5LS4zNTMgMy44NTMtLjgyNCA1LjM4Mi0xLjQxMmwzLjE3Ni0xLjg1M2MuMzUzLS4yMzUuNTU5LS40NDEuNjE4LS42MTguMDU5LS4xMTguMDg4LS4yMDYuMDg4LS4yNjUtLjA1OS0uMDU5LS4xMTctLjE0Ny0uMTc2LS4yNjVzLS4yMzUtLjMyNC0uNTI5LS42MThjLS43NjUtLjc2NS0xLjgyMy0xLjM4Mi0zLjE3Ni0xLjg1My0xLjI5NC0uNDcxLTIuNjc2LS44MjQtNC4xNDctMS4wNTktMS40NzEtLjI5NC0yLjk0MS0uNS00LjQxMi0uNjE4bC0zLjUyOS0uMTc2Yy0yLjcwNiAwLTUuMzUzLjIzNS03Ljk0MS43MDZTNyA2IDQuNzA2IDcuNTI5em0zMC41MjkgMjkuMTE4Yy4zNTMtLjIzNS41NTktLjQ0MS42MTgtLjYxOC4wNTktLjExNy4wODgtLjIwNi4wODgtLjI2NVYzMi41Yy0uMDU5LjA1OS0uMTE3LjA4OC0uMTc2LjA4OHMtLjA4OC4wMjktLjA4OC4wODhIMzUuNWwtLjE3Ni4wODhjLS4wNTkuMDU5LS4xMTguMDg4LS4xNzYuMDg4LTIuNjQ3IDEtNS4xNDcgMS43MDYtNy41IDIuMTE4LTIuMjk0LjM1My00Ljg1My41MjktNy42NzYuNTI5LS44ODIgMC0yLjA1OS0uMDU5LTMuNTI5LS4xNzZsLTQuNTg4LS41MjktNC41LS44ODJDNS45NDEgMzMuNSA0LjgyNCAzMy4wMjkgNCAzMi41djMuMjY1YzAgLjA1OS4wMjkuMTQ3LjA4OC4yNjUuMDU5LjE3Ni4yNjUuMzgzLjYxOC42MTguNzY1Ljc2NSAxLjc5NCAxLjM4MiAzLjA4OCAxLjg1MyAxLjM1My40NzEgMi43NjUuODUzIDQuMjM1IDEuMTQ3bDQuMzI0LjUyOSAzLjYxOC4wODhjMi43MDYgMCA1LjM1My0uMjA2IDcuOTQxLS42MTggMi41ODgtLjQ3MSA1LjAyOS0xLjQ3IDcuMzIzLTN6Ii8+JiN4YTs8L3N2Zz4=;" vertex="1" parent="1">
          <mxGeometry x="288.25" y="207.5" width="41" height="45" as="geometry" />
        </mxCell>
        <mxCell id="rlsA8ZojPqT0Ke0vseff-6" value="my doctor&#39;s&lt;br&gt;&amp;lt;database&amp;gt;" style="text;html=1;align=center;verticalAlign=middle;resizable=0;points=[];autosize=1;strokeColor=none;fillColor=none;" vertex="1" parent="1">
          <mxGeometry x="263.75" y="252" width="90" height="40" as="geometry" />
        </mxCell>
        <mxCell id="rlsA8ZojPqT0Ke0vseff-7" style="edgeStyle=orthogonalEdgeStyle;rounded=0;orthogonalLoop=1;jettySize=auto;html=1;entryX=1;entryY=0.5;entryDx=0;entryDy=0;curved=1;strokeWidth=4;fillColor=#d0cee2;strokeColor=#56517e;" edge="1" parent="1" source="rlsA8ZojPqT0Ke0vseff-8" target="rlsA8ZojPqT0Ke0vseff-4">
          <mxGeometry relative="1" as="geometry" />
        </mxCell>
        <mxCell id="rlsA8ZojPqT0Ke0vseff-8" value="&lt;div&gt;&amp;lt;get-owners&amp;gt;&lt;/div&gt;" style="ellipse;whiteSpace=wrap;html=1;strokeColor=none;fillColor=#d5e8d4;" vertex="1" parent="1">
          <mxGeometry x="425.75" y="160.5" width="105" height="42.5" as="geometry" />
        </mxCell>
        <mxCell id="rlsA8ZojPqT0Ke0vseff-9" style="edgeStyle=orthogonalEdgeStyle;rounded=0;orthogonalLoop=1;jettySize=auto;html=1;entryX=1;entryY=0.5;entryDx=0;entryDy=0;curved=1;strokeWidth=4;fillColor=#d0cee2;strokeColor=#56517e;" edge="1" parent="1" source="rlsA8ZojPqT0Ke0vseff-10" target="rlsA8ZojPqT0Ke0vseff-4">
          <mxGeometry relative="1" as="geometry" />
        </mxCell>
        <mxCell id="rlsA8ZojPqT0Ke0vseff-10" value="&amp;lt;get-owner&amp;gt;" style="ellipse;whiteSpace=wrap;html=1;strokeColor=none;fillColor=#d5e8d4;" vertex="1" parent="1">
          <mxGeometry x="423.25" y="233" width="105" height="45" as="geometry" />
        </mxCell>
        <mxCell id="rlsA8ZojPqT0Ke0vseff-11" value="&lt;div&gt;&amp;lt;change-owners&amp;gt;&lt;/div&gt;" style="ellipse;whiteSpace=wrap;html=1;strokeColor=none;fillColor=#d5e8d4;" vertex="1" parent="1">
          <mxGeometry x="60.75" y="233" width="130" height="45" as="geometry" />
        </mxCell>
        <mxCell id="rlsA8ZojPqT0Ke0vseff-12" value="" style="verticalLabelPosition=bottom;sketch=0;html=1;fillColor=#282828;strokeColor=none;verticalAlign=top;pointerEvents=1;align=center;shape=mxgraph.cisco_safe.people_places_things_icons.icon8;" vertex="1" parent="1">
          <mxGeometry x="240" y="122" width="19.5" height="50" as="geometry" />
        </mxCell>
        <mxCell id="rlsA8ZojPqT0Ke0vseff-13" value="Register&lt;br&gt;me and my pets&lt;br&gt;🐈🐈‍⬛" style="ellipse;shape=cloud;whiteSpace=wrap;html=1;fillColor=#dae8fc;strokeColor=none;" vertex="1" parent="1">
          <mxGeometry x="50" y="66" width="178" height="70" as="geometry" />
        </mxCell>
        <mxCell id="rlsA8ZojPqT0Ke0vseff-14" value="" style="ellipse;whiteSpace=wrap;html=1;aspect=fixed;fillColor=#dae8fc;strokeColor=none;" vertex="1" parent="1">
          <mxGeometry x="212" y="120" width="16" height="16" as="geometry" />
        </mxCell>
        <mxCell id="rlsA8ZojPqT0Ke0vseff-15" value="" style="ellipse;whiteSpace=wrap;html=1;aspect=fixed;fillColor=#dae8fc;strokeColor=none;" vertex="1" parent="1">
          <mxGeometry x="228" y="125" width="13" height="13" as="geometry" />
        </mxCell>
        <mxCell id="rlsA8ZojPqT0Ke0vseff-16" value="pet owner" style="text;html=1;align=center;verticalAlign=middle;whiteSpace=wrap;rounded=0;" vertex="1" parent="1">
          <mxGeometry x="220.75" y="96" width="60" height="30" as="geometry" />
        </mxCell>
        <mxCell id="rlsA8ZojPqT0Ke0vseff-17" value="" style="endArrow=classic;html=1;rounded=0;entryX=0;entryY=1;entryDx=0;entryDy=0;strokeWidth=4;fillColor=#d0cee2;strokeColor=#56517e;startArrow=classic;startFill=1;" edge="1" parent="1" target="rlsA8ZojPqT0Ke0vseff-4">
          <mxGeometry width="50" height="50" relative="1" as="geometry">
            <mxPoint x="190.75" y="256" as="sourcePoint" />
            <mxPoint x="230.75" y="242" as="targetPoint" />
          </mxGeometry>
        </mxCell>
        <mxCell id="rlsA8ZojPqT0Ke0vseff-18" value="&lt;font style=&quot;font-size: 14px;&quot;&gt;🐈&lt;/font&gt;" style="text;html=1;align=center;verticalAlign=middle;whiteSpace=wrap;rounded=0;" vertex="1" parent="1">
          <mxGeometry x="238" y="144" width="21.5" height="20" as="geometry" />
        </mxCell>
        <mxCell id="rlsA8ZojPqT0Ke0vseff-19" value="" style="verticalLabelPosition=bottom;sketch=0;html=1;fillColor=#282828;strokeColor=none;verticalAlign=top;pointerEvents=1;align=center;shape=mxgraph.cisco_safe.people_places_things_icons.icon8;" vertex="1" parent="1">
          <mxGeometry x="350.75" y="122" width="19.5" height="50" as="geometry" />
        </mxCell>
        <mxCell id="rlsA8ZojPqT0Ke0vseff-20" value="" style="ellipse;whiteSpace=wrap;html=1;aspect=fixed;fillColor=#dae8fc;strokeColor=none;" vertex="1" parent="1">
          <mxGeometry x="370.25" y="120" width="13" height="13" as="geometry" />
        </mxCell>
        <mxCell id="rlsA8ZojPqT0Ke0vseff-21" value="" style="ellipse;whiteSpace=wrap;html=1;aspect=fixed;fillColor=#dae8fc;strokeColor=none;" vertex="1" parent="1">
          <mxGeometry x="383.25" y="106" width="16" height="16" as="geometry" />
        </mxCell>
        <mxCell id="rlsA8ZojPqT0Ke0vseff-22" value="" style="ellipse;shape=cloud;whiteSpace=wrap;html=1;fillColor=#dae8fc;strokeColor=none;" vertex="1" parent="1">
          <mxGeometry x="383.25" y="60" width="178" height="70" as="geometry" />
        </mxCell>
        <mxCell id="rlsA8ZojPqT0Ke0vseff-23" value="&lt;font style=&quot;font-size: 14px;&quot;&gt;💉&lt;/font&gt;" style="text;html=1;align=center;verticalAlign=middle;whiteSpace=wrap;rounded=0;" vertex="1" parent="1">
          <mxGeometry x="350.75" y="146" width="17.5" height="20" as="geometry" />
        </mxCell>
        <mxCell id="rlsA8ZojPqT0Ke0vseff-24" value="other doctor" style="text;html=1;align=center;verticalAlign=middle;whiteSpace=wrap;rounded=0;" vertex="1" parent="1">
          <mxGeometry x="330.5" y="92" width="60" height="30" as="geometry" />
        </mxCell>
        <mxCell id="rlsA8ZojPqT0Ke0vseff-25" value="&lt;div&gt;What is the medical&lt;/div&gt;&lt;div&gt;background of these&lt;br&gt;cats?&lt;/div&gt;" style="text;html=1;align=center;verticalAlign=middle;whiteSpace=wrap;rounded=0;" vertex="1" parent="1">
          <mxGeometry x="405.75" y="76" width="145" height="46" as="geometry" />
        </mxCell>
        <mxCell id="rlsA8ZojPqT0Ke0vseff-26" value="&lt;font style=&quot;font-size: 24px;&quot;&gt;🧑‍⚕️&lt;/font&gt;" style="text;html=1;align=center;verticalAlign=middle;whiteSpace=wrap;rounded=0;" vertex="1" parent="1">
          <mxGeometry x="293.75" y="179.5" width="30" height="30" as="geometry" />
        </mxCell>
      </root>
    </mxGraphModel>
  </diagram>
  <diagram name="interface-description" id="zmVLXVvBEWYfkKTz5GkW">
    <mxGraphModel dx="570" dy="306" grid="1" gridSize="10" guides="1" tooltips="1" connect="1" arrows="1" fold="1" page="1" pageScale="1" pageWidth="850" pageHeight="1100" math="0" shadow="0">
      <root>
        <mxCell id="evG-HpBoxvzyEnpaOPum-0" />
        <mxCell id="evG-HpBoxvzyEnpaOPum-1" parent="evG-HpBoxvzyEnpaOPum-0" />
        <mxCell id="evG-HpBoxvzyEnpaOPum-2" value="POST&lt;br&gt;/owners" style="ellipse;whiteSpace=wrap;html=1;fillColor=#d5e8d4;strokeColor=none;" parent="evG-HpBoxvzyEnpaOPum-1" vertex="1">
          <mxGeometry x="80" y="156" width="130" height="45" as="geometry" />
        </mxCell>
        <mxCell id="evG-HpBoxvzyEnpaOPum-6" value="" style="rounded=1;whiteSpace=wrap;html=1;fillColor=#d5e8d4;strokeColor=none;" parent="evG-HpBoxvzyEnpaOPum-1" vertex="1">
          <mxGeometry x="298" y="175" width="60" height="80" as="geometry" />
        </mxCell>
        <mxCell id="evG-HpBoxvzyEnpaOPum-7" value="" style="shape=image;editableCssRules=.*;verticalLabelPosition=bottom;labelBackgroundColor=default;verticalAlign=top;aspect=fixed;imageAspect=0;image=data:image/svg+xml,PHN2ZyB4bWxucz0iaHR0cDovL3d3dy53My5vcmcvMjAwMC9zdmciIHZpZXdCb3g9Ii0wLjUgLTAuNSA0MC45NDEgNDUuMDg4IiBoZWlnaHQ9IjQ1LjA4OCIgd2lkdGg9IjQwLjk0MSIgc3R5bGU9ImNvbG9yLXNjaGVtZTogbGlnaHQgZGFyazsiPiYjeGE7CSAgPHN0eWxlIHR5cGU9InRleHQvY3NzIj4uc3QwIHsgc3RvcC1jb2xvcjogbGlnaHQtZGFyayhyZ2IoMCwgMCwgMCksIHJnYigxNTUsIDExOCwgMjU1KSk7IH0gLnN0MSB7IHN0b3AtY29sb3I6IGxpZ2h0LWRhcmsocmdiKDAsIDAsIDApLCByZ2IoNzEsIDEyLCAyMzcpKTsgfSA8L3N0eWxlPiYjeGE7CTxkZWZzPiYjeGE7CQk8bGluZWFyR3JhZGllbnQgZ3JhZGllbnRVbml0cz0idXNlclNwYWNlT25Vc2UiIHkyPSIzNy43MzgiIHgyPSIzNy42MDIiIHkxPSI1LjkiIHgxPSIzLjIxMyIgaWQ9IkEiPiYjeGE7CQkJPHN0b3AgY2xhc3M9InN0MCIvPiYjeGE7CQkJPHN0b3AgY2xhc3M9InN0MSIgb2Zmc2V0PSIxIi8+JiN4YTsJCTwvbGluZWFyR3JhZGllbnQ+JiN4YTsJPC9kZWZzPiYjeGE7CTxwYXRoIGZpbGw9InVybCgjQSkiIGQ9Ik0zOC4xNDcgNC4wODhjLjcwNi41ODggMS4yNjUgMS4yMzUgMS42NzYgMS45NDEuNDEyLjY0Ny42MTggMS40NDEuNjE4IDIuMzgydjI3LjM1M2MwIC44ODItLjIzNSAxLjY3Ni0uNzA2IDIuMzgycy0xIDEuMzUzLTEuNTg4IDEuOTQxYy0uNTI5LjQ3MS0xLjIwNi45MTItMi4wMyAxLjMyNC0uNzY1LjQxMi0xLjU4OC43OTQtMi40NzEgMS4xNDctMS44MjMuNzA2LTMuOTEyIDEuMjA2LTYuMjY1IDEuNS0yLjI5NC4zNTMtNC43NjUuNTI5LTcuNDEyLjUyOXMtNS4xNDctLjE3Ni03LjUtLjUyOWMtMi4yOTQtLjI5NC00LjM1My0uNzk0LTYuMTc2LTEuNWwtMi40NzEtLjk3YTguNjQgOC42NCAwIDAgMS0yLjAyOS0xLjVDLjI2NSAzOC44NTMtLjUgMzcuNDEyLS41IDM1Ljc2NVY4LjQxMmMwLS45NDEuMjM1LTEuNzM1LjcwNi0yLjM4Mi40NzEtLjcwNiAxLTEuMzUzIDEuNTg4LTEuOTQxIDEuMTc2LTEgMi42NzYtMS44NTMgNC41LTIuNTU5QzguMTE4Ljg4MiAxMC4xNzYuMzgyIDEyLjQ3MS4wMjljMi4zNTMtLjM1MyA0Ljg1My0uNTI5IDcuNS0uNTI5czUuMTE4LjE3NiA3LjQxMi41MjljMi4zNTMuMzUzIDQuNDQxLjg1MyA2LjI2NSAxLjUuODgyLjM1MyAxLjcwNi43MzUgMi40NzEgMS4xNDcuODI0LjM1MyAxLjUuODI0IDIuMDMgMS40MTJ6bS0yLjIwNiAxOS4zMjRjLTIuNzY1Ljk0MS01LjM4MiAxLjY3Ni03Ljg1MyAyLjIwNi0yLjQxMi41MjktNS4xMTguNzk0LTguMTE4Ljc5NC0yLjY0NyAwLTUuMTQ3LS4xNzctNy41LS41MjktMi4yOTQtLjM1My00LjM1My0uODUzLTYuMTc2LTEuNS0uOTQxLS4yOTQtMS43MDYtLjYxOC0yLjI5NC0uOTcxdjMuMTc3bC4xNzYuMzUzYy4wNTkuMTE4LjIzNS4zMjQuNTI5LjYxOC43NjUuNzA2IDEuNzk0IDEuMjk0IDMuMDg4IDEuNzY1IDEuMzUzLjQ3MSAyLjc2NS44NTMgNC4yMzUgMS4xNDdsNC4zMjQuNTI5IDMuNjE4LjE3NmE1MC40NSA1MC40NSAwIDAgMCA3Ljk0MS0uNjE4YzIuNTg4LS40NyA1LjAyOS0xLjQ3IDcuMzIzLTMgLjM1My0uMjM1LjU1OS0uNDQxLjYxOC0uNjE4LjA1OS0uMTE4LjA4OC0uMjM1LjA4OC0uMzUzem0wLTkuMDg4Yy0yLjc2NS45NDEtNS4zODIgMS42NzYtNy44NTMgMi4yMDYtMi40MTIuNTI5LTUuMTE4Ljc5NC04LjExOC43OTQtLjg4MiAwLTIuMDU5LS4wNTktMy41MjktLjE3NmwtNC41ODgtLjUyOS00LjUtLjg4MmMtMS40MTItLjQxMi0yLjUyOS0uODgyLTMuMzUzLTEuNDEyVjE3LjVjMCAuMDU5LjAyOS4xNDcuMDg4LjI2NS4xMTguMDU5LjIwNi4xNDcuMjY1LjI2NWwuMzUzLjM1M2MuNzY1Ljc2NSAxLjc5NCAxLjM4MiAzLjA4OCAxLjg1MyAxLjM1My40NzEgMi43NjUuODUzIDQuMjM1IDEuMTQ3bDQuMzI0LjUyOSAzLjYxOC4xNzZjMi43MDYgMCA1LjM1My0uMjM1IDcuOTQxLS43MDZzNS4wMjktMS40NzEgNy4zMjMtM2MuMzUzLS4yMzUuNTU5LS40NDEuNjE4LS42MTguMDU5LS4xMTguMDg4LS4yMDYuMDg4LS4yNjV6TTQuNzA2IDcuNTI5Yy0uMjk0LjExOC0uNS4zMjQtLjYxOC42MTgtLjA1OS4xMTgtLjA4OC4yMDYtLjA4OC4yNjVzLjAyOS4xNDcuMDg4LjI2NWMuMTE4LjA1OS4yMDYuMTQ3LjI2NS4yNjVsLjM1My4zNTNjLjc2NS43NjUgMS43OTQgMS4zODIgMy4wODggMS44NTMgMS4zNTMuNDcxIDIuNzY1Ljg1MyA0LjIzNSAxLjE0N2w0LjMyNC41MjkgMy42MTguMTc2YzIuNDEyIDAgNC42NDctLjE0NyA2LjcwNi0uNDQxIDIuMDU5LS4zNTMgMy44NTMtLjgyNCA1LjM4Mi0xLjQxMmwzLjE3Ni0xLjg1M2MuMzUzLS4yMzUuNTU5LS40NDEuNjE4LS42MTguMDU5LS4xMTguMDg4LS4yMDYuMDg4LS4yNjUtLjA1OS0uMDU5LS4xMTctLjE0Ny0uMTc2LS4yNjVzLS4yMzUtLjMyNC0uNTI5LS42MThjLS43NjUtLjc2NS0xLjgyMy0xLjM4Mi0zLjE3Ni0xLjg1My0xLjI5NC0uNDcxLTIuNjc2LS44MjQtNC4xNDctMS4wNTktMS40NzEtLjI5NC0yLjk0MS0uNS00LjQxMi0uNjE4bC0zLjUyOS0uMTc2Yy0yLjcwNiAwLTUuMzUzLjIzNS03Ljk0MS43MDZTNyA2IDQuNzA2IDcuNTI5em0zMC41MjkgMjkuMTE4Yy4zNTMtLjIzNS41NTktLjQ0MS42MTgtLjYxOC4wNTktLjExNy4wODgtLjIwNi4wODgtLjI2NVYzMi41Yy0uMDU5LjA1OS0uMTE3LjA4OC0uMTc2LjA4OHMtLjA4OC4wMjktLjA4OC4wODhIMzUuNWwtLjE3Ni4wODhjLS4wNTkuMDU5LS4xMTguMDg4LS4xNzYuMDg4LTIuNjQ3IDEtNS4xNDcgMS43MDYtNy41IDIuMTE4LTIuMjk0LjM1My00Ljg1My41MjktNy42NzYuNTI5LS44ODIgMC0yLjA1OS0uMDU5LTMuNTI5LS4xNzZsLTQuNTg4LS41MjktNC41LS44ODJDNS45NDEgMzMuNSA0LjgyNCAzMy4wMjkgNCAzMi41djMuMjY1YzAgLjA1OS4wMjkuMTQ3LjA4OC4yNjUuMDU5LjE3Ni4yNjUuMzgzLjYxOC42MTguNzY1Ljc2NSAxLjc5NCAxLjM4MiAzLjA4OCAxLjg1MyAxLjM1My40NzEgMi43NjUuODUzIDQuMjM1IDEuMTQ3bDQuMzI0LjUyOSAzLjYxOC4wODhjMi43MDYgMCA1LjM1My0uMjA2IDcuOTQxLS42MTggMi41ODgtLjQ3MSA1LjAyOS0xLjQ3IDcuMzIzLTN6Ii8+JiN4YTs8L3N2Zz4=;" parent="evG-HpBoxvzyEnpaOPum-1" vertex="1">
          <mxGeometry x="307.5" y="205.5" width="41" height="45" as="geometry" />
        </mxCell>
        <mxCell id="evG-HpBoxvzyEnpaOPum-8" value="my doctor&#39;s&lt;br&gt;&amp;lt;database&amp;gt;" style="text;html=1;align=center;verticalAlign=middle;resizable=0;points=[];autosize=1;strokeColor=none;fillColor=none;" parent="evG-HpBoxvzyEnpaOPum-1" vertex="1">
          <mxGeometry x="283" y="250" width="90" height="40" as="geometry" />
        </mxCell>
        <mxCell id="evG-HpBoxvzyEnpaOPum-10" value="GET&lt;br&gt;/owners" style="ellipse;whiteSpace=wrap;html=1;fillColor=#d5e8d4;strokeColor=none;" parent="evG-HpBoxvzyEnpaOPum-1" vertex="1">
          <mxGeometry x="445" y="158.5" width="105" height="42.5" as="geometry" />
        </mxCell>
        <mxCell id="evG-HpBoxvzyEnpaOPum-13" value="GET&lt;br&gt;/owners/{id}" style="ellipse;whiteSpace=wrap;html=1;fillColor=#d5e8d4;strokeColor=none;" parent="evG-HpBoxvzyEnpaOPum-1" vertex="1">
          <mxGeometry x="442.5" y="231" width="105" height="45" as="geometry" />
        </mxCell>
        <mxCell id="evG-HpBoxvzyEnpaOPum-15" value="POST&lt;br&gt;/owner/{id}/{pet-id}/change-owner" style="ellipse;whiteSpace=wrap;html=1;fillColor=#d5e8d4;strokeColor=none;" parent="evG-HpBoxvzyEnpaOPum-1" vertex="1">
          <mxGeometry x="80" y="231" width="130" height="45" as="geometry" />
        </mxCell>
        <mxCell id="evG-HpBoxvzyEnpaOPum-17" value="" style="verticalLabelPosition=bottom;sketch=0;html=1;fillColor=#282828;strokeColor=none;verticalAlign=top;pointerEvents=1;align=center;shape=mxgraph.cisco_safe.people_places_things_icons.icon8;" parent="evG-HpBoxvzyEnpaOPum-1" vertex="1">
          <mxGeometry x="259.25" y="120" width="19.5" height="50" as="geometry" />
        </mxCell>
        <mxCell id="evG-HpBoxvzyEnpaOPum-18" value="Register&lt;br&gt;me and my pets&lt;br&gt;🐈🐈‍⬛" style="ellipse;shape=cloud;whiteSpace=wrap;html=1;fillColor=#dae8fc;strokeColor=none;" parent="evG-HpBoxvzyEnpaOPum-1" vertex="1">
          <mxGeometry x="69.25" y="64" width="178" height="70" as="geometry" />
        </mxCell>
        <mxCell id="evG-HpBoxvzyEnpaOPum-19" value="" style="ellipse;whiteSpace=wrap;html=1;aspect=fixed;fillColor=#dae8fc;strokeColor=none;" parent="evG-HpBoxvzyEnpaOPum-1" vertex="1">
          <mxGeometry x="231.25" y="118" width="16" height="16" as="geometry" />
        </mxCell>
        <mxCell id="evG-HpBoxvzyEnpaOPum-20" value="" style="ellipse;whiteSpace=wrap;html=1;aspect=fixed;fillColor=#dae8fc;strokeColor=none;" parent="evG-HpBoxvzyEnpaOPum-1" vertex="1">
          <mxGeometry x="247.25" y="123" width="13" height="13" as="geometry" />
        </mxCell>
        <mxCell id="evG-HpBoxvzyEnpaOPum-21" value="pet owner" style="text;html=1;align=center;verticalAlign=middle;whiteSpace=wrap;rounded=0;" parent="evG-HpBoxvzyEnpaOPum-1" vertex="1">
          <mxGeometry x="240" y="94" width="60" height="30" as="geometry" />
        </mxCell>
        <mxCell id="evG-HpBoxvzyEnpaOPum-23" value="&lt;font style=&quot;font-size: 14px;&quot;&gt;🐈&lt;/font&gt;" style="text;html=1;align=center;verticalAlign=middle;whiteSpace=wrap;rounded=0;" parent="evG-HpBoxvzyEnpaOPum-1" vertex="1">
          <mxGeometry x="257.25" y="142" width="21.5" height="20" as="geometry" />
        </mxCell>
        <mxCell id="evG-HpBoxvzyEnpaOPum-24" value="" style="verticalLabelPosition=bottom;sketch=0;html=1;fillColor=#282828;strokeColor=none;verticalAlign=top;pointerEvents=1;align=center;shape=mxgraph.cisco_safe.people_places_things_icons.icon8;" parent="evG-HpBoxvzyEnpaOPum-1" vertex="1">
          <mxGeometry x="370" y="120" width="19.5" height="50" as="geometry" />
        </mxCell>
        <mxCell id="evG-HpBoxvzyEnpaOPum-25" value="" style="ellipse;whiteSpace=wrap;html=1;aspect=fixed;fillColor=#dae8fc;strokeColor=none;" parent="evG-HpBoxvzyEnpaOPum-1" vertex="1">
          <mxGeometry x="389.5" y="118" width="13" height="13" as="geometry" />
        </mxCell>
        <mxCell id="evG-HpBoxvzyEnpaOPum-26" value="" style="ellipse;whiteSpace=wrap;html=1;aspect=fixed;fillColor=#dae8fc;strokeColor=none;" parent="evG-HpBoxvzyEnpaOPum-1" vertex="1">
          <mxGeometry x="402.5" y="104" width="16" height="16" as="geometry" />
        </mxCell>
        <mxCell id="evG-HpBoxvzyEnpaOPum-27" value="" style="ellipse;shape=cloud;whiteSpace=wrap;html=1;fillColor=#dae8fc;strokeColor=none;" parent="evG-HpBoxvzyEnpaOPum-1" vertex="1">
          <mxGeometry x="402.5" y="58" width="178" height="70" as="geometry" />
        </mxCell>
        <mxCell id="evG-HpBoxvzyEnpaOPum-28" value="&lt;font style=&quot;font-size: 14px;&quot;&gt;💉&lt;/font&gt;" style="text;html=1;align=center;verticalAlign=middle;whiteSpace=wrap;rounded=0;" parent="evG-HpBoxvzyEnpaOPum-1" vertex="1">
          <mxGeometry x="370" y="144" width="17.5" height="20" as="geometry" />
        </mxCell>
        <mxCell id="evG-HpBoxvzyEnpaOPum-29" value="other doctor" style="text;html=1;align=center;verticalAlign=middle;whiteSpace=wrap;rounded=0;" parent="evG-HpBoxvzyEnpaOPum-1" vertex="1">
          <mxGeometry x="349.75" y="90" width="60" height="30" as="geometry" />
        </mxCell>
        <mxCell id="evG-HpBoxvzyEnpaOPum-30" value="&lt;div&gt;What is the medical&lt;/div&gt;&lt;div&gt;background of these&lt;br&gt;cats?&lt;/div&gt;" style="text;html=1;align=center;verticalAlign=middle;whiteSpace=wrap;rounded=0;" parent="evG-HpBoxvzyEnpaOPum-1" vertex="1">
          <mxGeometry x="425" y="74" width="145" height="46" as="geometry" />
        </mxCell>
        <mxCell id="evG-HpBoxvzyEnpaOPum-31" value="&lt;font style=&quot;font-size: 24px;&quot;&gt;🧑‍⚕️&lt;/font&gt;" style="text;html=1;align=center;verticalAlign=middle;whiteSpace=wrap;rounded=0;" parent="evG-HpBoxvzyEnpaOPum-1" vertex="1">
          <mxGeometry x="313" y="177.5" width="30" height="30" as="geometry" />
        </mxCell>
        <mxCell id="fJOZf43xwzK0CI9BAH3D-0" value="" style="ellipse;shape=cloud;whiteSpace=wrap;html=1;fillStyle=solid;fillColor=#989898;strokeColor=none;opacity=80;" parent="evG-HpBoxvzyEnpaOPum-1" vertex="1">
          <mxGeometry x="222.38" y="160.5" width="211.25" height="124" as="geometry" />
        </mxCell>
      </root>
    </mxGraphModel>
  </diagram>
  <diagram name="openapi" id="jxKMgrTMXJC641or1HhE">
    <mxGraphModel dx="983" dy="528" grid="1" gridSize="10" guides="1" tooltips="1" connect="1" arrows="1" fold="1" page="1" pageScale="1" pageWidth="850" pageHeight="1100" math="0" shadow="0">
      <root>
        <mxCell id="fDsWYuVMsxrBDJEpCATt-0" />
        <mxCell id="fDsWYuVMsxrBDJEpCATt-1" parent="fDsWYuVMsxrBDJEpCATt-0" />
        <mxCell id="fDsWYuVMsxrBDJEpCATt-2" value="POST&lt;br&gt;/owners" style="ellipse;whiteSpace=wrap;html=1;fillColor=#d5e8d4;strokeColor=none;" vertex="1" parent="fDsWYuVMsxrBDJEpCATt-1">
          <mxGeometry x="80" y="156" width="130" height="45" as="geometry" />
        </mxCell>
        <mxCell id="fDsWYuVMsxrBDJEpCATt-3" value="" style="rounded=1;whiteSpace=wrap;html=1;fillColor=#d5e8d4;strokeColor=none;" vertex="1" parent="fDsWYuVMsxrBDJEpCATt-1">
          <mxGeometry x="298" y="175" width="60" height="80" as="geometry" />
        </mxCell>
        <mxCell id="fDsWYuVMsxrBDJEpCATt-4" value="" style="shape=image;editableCssRules=.*;verticalLabelPosition=bottom;labelBackgroundColor=default;verticalAlign=top;aspect=fixed;imageAspect=0;image=data:image/svg+xml,PHN2ZyB4bWxucz0iaHR0cDovL3d3dy53My5vcmcvMjAwMC9zdmciIHZpZXdCb3g9Ii0wLjUgLTAuNSA0MC45NDEgNDUuMDg4IiBoZWlnaHQ9IjQ1LjA4OCIgd2lkdGg9IjQwLjk0MSIgc3R5bGU9ImNvbG9yLXNjaGVtZTogbGlnaHQgZGFyazsiPiYjeGE7CSAgPHN0eWxlIHR5cGU9InRleHQvY3NzIj4uc3QwIHsgc3RvcC1jb2xvcjogbGlnaHQtZGFyayhyZ2IoMCwgMCwgMCksIHJnYigxNTUsIDExOCwgMjU1KSk7IH0gLnN0MSB7IHN0b3AtY29sb3I6IGxpZ2h0LWRhcmsocmdiKDAsIDAsIDApLCByZ2IoNzEsIDEyLCAyMzcpKTsgfSA8L3N0eWxlPiYjeGE7CTxkZWZzPiYjeGE7CQk8bGluZWFyR3JhZGllbnQgZ3JhZGllbnRVbml0cz0idXNlclNwYWNlT25Vc2UiIHkyPSIzNy43MzgiIHgyPSIzNy42MDIiIHkxPSI1LjkiIHgxPSIzLjIxMyIgaWQ9IkEiPiYjeGE7CQkJPHN0b3AgY2xhc3M9InN0MCIvPiYjeGE7CQkJPHN0b3AgY2xhc3M9InN0MSIgb2Zmc2V0PSIxIi8+JiN4YTsJCTwvbGluZWFyR3JhZGllbnQ+JiN4YTsJPC9kZWZzPiYjeGE7CTxwYXRoIGZpbGw9InVybCgjQSkiIGQ9Ik0zOC4xNDcgNC4wODhjLjcwNi41ODggMS4yNjUgMS4yMzUgMS42NzYgMS45NDEuNDEyLjY0Ny42MTggMS40NDEuNjE4IDIuMzgydjI3LjM1M2MwIC44ODItLjIzNSAxLjY3Ni0uNzA2IDIuMzgycy0xIDEuMzUzLTEuNTg4IDEuOTQxYy0uNTI5LjQ3MS0xLjIwNi45MTItMi4wMyAxLjMyNC0uNzY1LjQxMi0xLjU4OC43OTQtMi40NzEgMS4xNDctMS44MjMuNzA2LTMuOTEyIDEuMjA2LTYuMjY1IDEuNS0yLjI5NC4zNTMtNC43NjUuNTI5LTcuNDEyLjUyOXMtNS4xNDctLjE3Ni03LjUtLjUyOWMtMi4yOTQtLjI5NC00LjM1My0uNzk0LTYuMTc2LTEuNWwtMi40NzEtLjk3YTguNjQgOC42NCAwIDAgMS0yLjAyOS0xLjVDLjI2NSAzOC44NTMtLjUgMzcuNDEyLS41IDM1Ljc2NVY4LjQxMmMwLS45NDEuMjM1LTEuNzM1LjcwNi0yLjM4Mi40NzEtLjcwNiAxLTEuMzUzIDEuNTg4LTEuOTQxIDEuMTc2LTEgMi42NzYtMS44NTMgNC41LTIuNTU5QzguMTE4Ljg4MiAxMC4xNzYuMzgyIDEyLjQ3MS4wMjljMi4zNTMtLjM1MyA0Ljg1My0uNTI5IDcuNS0uNTI5czUuMTE4LjE3NiA3LjQxMi41MjljMi4zNTMuMzUzIDQuNDQxLjg1MyA2LjI2NSAxLjUuODgyLjM1MyAxLjcwNi43MzUgMi40NzEgMS4xNDcuODI0LjM1MyAxLjUuODI0IDIuMDMgMS40MTJ6bS0yLjIwNiAxOS4zMjRjLTIuNzY1Ljk0MS01LjM4MiAxLjY3Ni03Ljg1MyAyLjIwNi0yLjQxMi41MjktNS4xMTguNzk0LTguMTE4Ljc5NC0yLjY0NyAwLTUuMTQ3LS4xNzctNy41LS41MjktMi4yOTQtLjM1My00LjM1My0uODUzLTYuMTc2LTEuNS0uOTQxLS4yOTQtMS43MDYtLjYxOC0yLjI5NC0uOTcxdjMuMTc3bC4xNzYuMzUzYy4wNTkuMTE4LjIzNS4zMjQuNTI5LjYxOC43NjUuNzA2IDEuNzk0IDEuMjk0IDMuMDg4IDEuNzY1IDEuMzUzLjQ3MSAyLjc2NS44NTMgNC4yMzUgMS4xNDdsNC4zMjQuNTI5IDMuNjE4LjE3NmE1MC40NSA1MC40NSAwIDAgMCA3Ljk0MS0uNjE4YzIuNTg4LS40NyA1LjAyOS0xLjQ3IDcuMzIzLTMgLjM1My0uMjM1LjU1OS0uNDQxLjYxOC0uNjE4LjA1OS0uMTE4LjA4OC0uMjM1LjA4OC0uMzUzem0wLTkuMDg4Yy0yLjc2NS45NDEtNS4zODIgMS42NzYtNy44NTMgMi4yMDYtMi40MTIuNTI5LTUuMTE4Ljc5NC04LjExOC43OTQtLjg4MiAwLTIuMDU5LS4wNTktMy41MjktLjE3NmwtNC41ODgtLjUyOS00LjUtLjg4MmMtMS40MTItLjQxMi0yLjUyOS0uODgyLTMuMzUzLTEuNDEyVjE3LjVjMCAuMDU5LjAyOS4xNDcuMDg4LjI2NS4xMTguMDU5LjIwNi4xNDcuMjY1LjI2NWwuMzUzLjM1M2MuNzY1Ljc2NSAxLjc5NCAxLjM4MiAzLjA4OCAxLjg1MyAxLjM1My40NzEgMi43NjUuODUzIDQuMjM1IDEuMTQ3bDQuMzI0LjUyOSAzLjYxOC4xNzZjMi43MDYgMCA1LjM1My0uMjM1IDcuOTQxLS43MDZzNS4wMjktMS40NzEgNy4zMjMtM2MuMzUzLS4yMzUuNTU5LS40NDEuNjE4LS42MTguMDU5LS4xMTguMDg4LS4yMDYuMDg4LS4yNjV6TTQuNzA2IDcuNTI5Yy0uMjk0LjExOC0uNS4zMjQtLjYxOC42MTgtLjA1OS4xMTgtLjA4OC4yMDYtLjA4OC4yNjVzLjAyOS4xNDcuMDg4LjI2NWMuMTE4LjA1OS4yMDYuMTQ3LjI2NS4yNjVsLjM1My4zNTNjLjc2NS43NjUgMS43OTQgMS4zODIgMy4wODggMS44NTMgMS4zNTMuNDcxIDIuNzY1Ljg1MyA0LjIzNSAxLjE0N2w0LjMyNC41MjkgMy42MTguMTc2YzIuNDEyIDAgNC42NDctLjE0NyA2LjcwNi0uNDQxIDIuMDU5LS4zNTMgMy44NTMtLjgyNCA1LjM4Mi0xLjQxMmwzLjE3Ni0xLjg1M2MuMzUzLS4yMzUuNTU5LS40NDEuNjE4LS42MTguMDU5LS4xMTguMDg4LS4yMDYuMDg4LS4yNjUtLjA1OS0uMDU5LS4xMTctLjE0Ny0uMTc2LS4yNjVzLS4yMzUtLjMyNC0uNTI5LS42MThjLS43NjUtLjc2NS0xLjgyMy0xLjM4Mi0zLjE3Ni0xLjg1My0xLjI5NC0uNDcxLTIuNjc2LS44MjQtNC4xNDctMS4wNTktMS40NzEtLjI5NC0yLjk0MS0uNS00LjQxMi0uNjE4bC0zLjUyOS0uMTc2Yy0yLjcwNiAwLTUuMzUzLjIzNS03Ljk0MS43MDZTNyA2IDQuNzA2IDcuNTI5em0zMC41MjkgMjkuMTE4Yy4zNTMtLjIzNS41NTktLjQ0MS42MTgtLjYxOC4wNTktLjExNy4wODgtLjIwNi4wODgtLjI2NVYzMi41Yy0uMDU5LjA1OS0uMTE3LjA4OC0uMTc2LjA4OHMtLjA4OC4wMjktLjA4OC4wODhIMzUuNWwtLjE3Ni4wODhjLS4wNTkuMDU5LS4xMTguMDg4LS4xNzYuMDg4LTIuNjQ3IDEtNS4xNDcgMS43MDYtNy41IDIuMTE4LTIuMjk0LjM1My00Ljg1My41MjktNy42NzYuNTI5LS44ODIgMC0yLjA1OS0uMDU5LTMuNTI5LS4xNzZsLTQuNTg4LS41MjktNC41LS44ODJDNS45NDEgMzMuNSA0LjgyNCAzMy4wMjkgNCAzMi41djMuMjY1YzAgLjA1OS4wMjkuMTQ3LjA4OC4yNjUuMDU5LjE3Ni4yNjUuMzgzLjYxOC42MTguNzY1Ljc2NSAxLjc5NCAxLjM4MiAzLjA4OCAxLjg1MyAxLjM1My40NzEgMi43NjUuODUzIDQuMjM1IDEuMTQ3bDQuMzI0LjUyOSAzLjYxOC4wODhjMi43MDYgMCA1LjM1My0uMjA2IDcuOTQxLS42MTggMi41ODgtLjQ3MSA1LjAyOS0xLjQ3IDcuMzIzLTN6Ii8+JiN4YTs8L3N2Zz4=;" vertex="1" parent="fDsWYuVMsxrBDJEpCATt-1">
          <mxGeometry x="307.5" y="205.5" width="41" height="45" as="geometry" />
        </mxCell>
        <mxCell id="fDsWYuVMsxrBDJEpCATt-5" value="my doctor&#39;s&lt;br&gt;&amp;lt;database&amp;gt;" style="text;html=1;align=center;verticalAlign=middle;resizable=0;points=[];autosize=1;strokeColor=none;fillColor=none;" vertex="1" parent="fDsWYuVMsxrBDJEpCATt-1">
          <mxGeometry x="283" y="250" width="90" height="40" as="geometry" />
        </mxCell>
        <mxCell id="fDsWYuVMsxrBDJEpCATt-6" value="GET&lt;br&gt;/owners" style="ellipse;whiteSpace=wrap;html=1;fillColor=#d5e8d4;strokeColor=none;" vertex="1" parent="fDsWYuVMsxrBDJEpCATt-1">
          <mxGeometry x="445" y="158.5" width="105" height="42.5" as="geometry" />
        </mxCell>
        <mxCell id="fDsWYuVMsxrBDJEpCATt-7" value="GET&lt;br&gt;/owners/{id}" style="ellipse;whiteSpace=wrap;html=1;fillColor=#d5e8d4;strokeColor=none;" vertex="1" parent="fDsWYuVMsxrBDJEpCATt-1">
          <mxGeometry x="442.5" y="231" width="105" height="45" as="geometry" />
        </mxCell>
        <mxCell id="fDsWYuVMsxrBDJEpCATt-8" value="POST&lt;br&gt;/owner/{id}/{pet-id}/change-owner" style="ellipse;whiteSpace=wrap;html=1;fillColor=#d5e8d4;strokeColor=none;" vertex="1" parent="fDsWYuVMsxrBDJEpCATt-1">
          <mxGeometry x="80" y="231" width="130" height="45" as="geometry" />
        </mxCell>
        <mxCell id="fDsWYuVMsxrBDJEpCATt-22" value="&lt;font style=&quot;font-size: 24px;&quot;&gt;🧑‍⚕️&lt;/font&gt;" style="text;html=1;align=center;verticalAlign=middle;whiteSpace=wrap;rounded=0;" vertex="1" parent="fDsWYuVMsxrBDJEpCATt-1">
          <mxGeometry x="313" y="177.5" width="30" height="30" as="geometry" />
        </mxCell>
        <mxCell id="fDsWYuVMsxrBDJEpCATt-23" value="" style="ellipse;shape=cloud;whiteSpace=wrap;html=1;fillStyle=solid;fillColor=#989898;strokeColor=none;opacity=80;" vertex="1" parent="fDsWYuVMsxrBDJEpCATt-1">
          <mxGeometry x="222.38" y="160.5" width="211.25" height="124" as="geometry" />
        </mxCell>
      </root>
    </mxGraphModel>
  </diagram>
  <diagram name="mcp" id="QuAScUKOHS9TJBaM4hNP">
    <mxGraphModel dx="679" dy="364" grid="1" gridSize="10" guides="1" tooltips="1" connect="1" arrows="1" fold="1" page="1" pageScale="1" pageWidth="850" pageHeight="1100" math="0" shadow="0">
      <root>
        <mxCell id="JRQPhsYu2ruVvUA1gsYU-0" />
        <mxCell id="JRQPhsYu2ruVvUA1gsYU-1" parent="JRQPhsYu2ruVvUA1gsYU-0" />
        <mxCell id="JRQPhsYu2ruVvUA1gsYU-2" value="create_owner_with_pet" style="ellipse;whiteSpace=wrap;html=1;fillColor=#d5e8d4;strokeColor=none;" vertex="1" parent="JRQPhsYu2ruVvUA1gsYU-1">
          <mxGeometry x="80" y="156" width="130" height="45" as="geometry" />
        </mxCell>
        <mxCell id="JRQPhsYu2ruVvUA1gsYU-3" value="" style="rounded=1;whiteSpace=wrap;html=1;fillColor=#d5e8d4;strokeColor=none;" vertex="1" parent="JRQPhsYu2ruVvUA1gsYU-1">
          <mxGeometry x="298" y="175" width="60" height="80" as="geometry" />
        </mxCell>
        <mxCell id="JRQPhsYu2ruVvUA1gsYU-4" value="" style="shape=image;editableCssRules=.*;verticalLabelPosition=bottom;labelBackgroundColor=default;verticalAlign=top;aspect=fixed;imageAspect=0;image=data:image/svg+xml,PHN2ZyB4bWxucz0iaHR0cDovL3d3dy53My5vcmcvMjAwMC9zdmciIHZpZXdCb3g9Ii0wLjUgLTAuNSA0MC45NDEgNDUuMDg4IiBoZWlnaHQ9IjQ1LjA4OCIgd2lkdGg9IjQwLjk0MSIgc3R5bGU9ImNvbG9yLXNjaGVtZTogbGlnaHQgZGFyazsiPiYjeGE7CSAgPHN0eWxlIHR5cGU9InRleHQvY3NzIj4uc3QwIHsgc3RvcC1jb2xvcjogbGlnaHQtZGFyayhyZ2IoMCwgMCwgMCksIHJnYigxNTUsIDExOCwgMjU1KSk7IH0gLnN0MSB7IHN0b3AtY29sb3I6IGxpZ2h0LWRhcmsocmdiKDAsIDAsIDApLCByZ2IoNzEsIDEyLCAyMzcpKTsgfSA8L3N0eWxlPiYjeGE7CTxkZWZzPiYjeGE7CQk8bGluZWFyR3JhZGllbnQgZ3JhZGllbnRVbml0cz0idXNlclNwYWNlT25Vc2UiIHkyPSIzNy43MzgiIHgyPSIzNy42MDIiIHkxPSI1LjkiIHgxPSIzLjIxMyIgaWQ9IkEiPiYjeGE7CQkJPHN0b3AgY2xhc3M9InN0MCIvPiYjeGE7CQkJPHN0b3AgY2xhc3M9InN0MSIgb2Zmc2V0PSIxIi8+JiN4YTsJCTwvbGluZWFyR3JhZGllbnQ+JiN4YTsJPC9kZWZzPiYjeGE7CTxwYXRoIGZpbGw9InVybCgjQSkiIGQ9Ik0zOC4xNDcgNC4wODhjLjcwNi41ODggMS4yNjUgMS4yMzUgMS42NzYgMS45NDEuNDEyLjY0Ny42MTggMS40NDEuNjE4IDIuMzgydjI3LjM1M2MwIC44ODItLjIzNSAxLjY3Ni0uNzA2IDIuMzgycy0xIDEuMzUzLTEuNTg4IDEuOTQxYy0uNTI5LjQ3MS0xLjIwNi45MTItMi4wMyAxLjMyNC0uNzY1LjQxMi0xLjU4OC43OTQtMi40NzEgMS4xNDctMS44MjMuNzA2LTMuOTEyIDEuMjA2LTYuMjY1IDEuNS0yLjI5NC4zNTMtNC43NjUuNTI5LTcuNDEyLjUyOXMtNS4xNDctLjE3Ni03LjUtLjUyOWMtMi4yOTQtLjI5NC00LjM1My0uNzk0LTYuMTc2LTEuNWwtMi40NzEtLjk3YTguNjQgOC42NCAwIDAgMS0yLjAyOS0xLjVDLjI2NSAzOC44NTMtLjUgMzcuNDEyLS41IDM1Ljc2NVY4LjQxMmMwLS45NDEuMjM1LTEuNzM1LjcwNi0yLjM4Mi40NzEtLjcwNiAxLTEuMzUzIDEuNTg4LTEuOTQxIDEuMTc2LTEgMi42NzYtMS44NTMgNC41LTIuNTU5QzguMTE4Ljg4MiAxMC4xNzYuMzgyIDEyLjQ3MS4wMjljMi4zNTMtLjM1MyA0Ljg1My0uNTI5IDcuNS0uNTI5czUuMTE4LjE3NiA3LjQxMi41MjljMi4zNTMuMzUzIDQuNDQxLjg1MyA2LjI2NSAxLjUuODgyLjM1MyAxLjcwNi43MzUgMi40NzEgMS4xNDcuODI0LjM1MyAxLjUuODI0IDIuMDMgMS40MTJ6bS0yLjIwNiAxOS4zMjRjLTIuNzY1Ljk0MS01LjM4MiAxLjY3Ni03Ljg1MyAyLjIwNi0yLjQxMi41MjktNS4xMTguNzk0LTguMTE4Ljc5NC0yLjY0NyAwLTUuMTQ3LS4xNzctNy41LS41MjktMi4yOTQtLjM1My00LjM1My0uODUzLTYuMTc2LTEuNS0uOTQxLS4yOTQtMS43MDYtLjYxOC0yLjI5NC0uOTcxdjMuMTc3bC4xNzYuMzUzYy4wNTkuMTE4LjIzNS4zMjQuNTI5LjYxOC43NjUuNzA2IDEuNzk0IDEuMjk0IDMuMDg4IDEuNzY1IDEuMzUzLjQ3MSAyLjc2NS44NTMgNC4yMzUgMS4xNDdsNC4zMjQuNTI5IDMuNjE4LjE3NmE1MC40NSA1MC40NSAwIDAgMCA3Ljk0MS0uNjE4YzIuNTg4LS40NyA1LjAyOS0xLjQ3IDcuMzIzLTMgLjM1My0uMjM1LjU1OS0uNDQxLjYxOC0uNjE4LjA1OS0uMTE4LjA4OC0uMjM1LjA4OC0uMzUzem0wLTkuMDg4Yy0yLjc2NS45NDEtNS4zODIgMS42NzYtNy44NTMgMi4yMDYtMi40MTIuNTI5LTUuMTE4Ljc5NC04LjExOC43OTQtLjg4MiAwLTIuMDU5LS4wNTktMy41MjktLjE3NmwtNC41ODgtLjUyOS00LjUtLjg4MmMtMS40MTItLjQxMi0yLjUyOS0uODgyLTMuMzUzLTEuNDEyVjE3LjVjMCAuMDU5LjAyOS4xNDcuMDg4LjI2NS4xMTguMDU5LjIwNi4xNDcuMjY1LjI2NWwuMzUzLjM1M2MuNzY1Ljc2NSAxLjc5NCAxLjM4MiAzLjA4OCAxLjg1MyAxLjM1My40NzEgMi43NjUuODUzIDQuMjM1IDEuMTQ3bDQuMzI0LjUyOSAzLjYxOC4xNzZjMi43MDYgMCA1LjM1My0uMjM1IDcuOTQxLS43MDZzNS4wMjktMS40NzEgNy4zMjMtM2MuMzUzLS4yMzUuNTU5LS40NDEuNjE4LS42MTguMDU5LS4xMTguMDg4LS4yMDYuMDg4LS4yNjV6TTQuNzA2IDcuNTI5Yy0uMjk0LjExOC0uNS4zMjQtLjYxOC42MTgtLjA1OS4xMTgtLjA4OC4yMDYtLjA4OC4yNjVzLjAyOS4xNDcuMDg4LjI2NWMuMTE4LjA1OS4yMDYuMTQ3LjI2NS4yNjVsLjM1My4zNTNjLjc2NS43NjUgMS43OTQgMS4zODIgMy4wODggMS44NTMgMS4zNTMuNDcxIDIuNzY1Ljg1MyA0LjIzNSAxLjE0N2w0LjMyNC41MjkgMy42MTguMTc2YzIuNDEyIDAgNC42NDctLjE0NyA2LjcwNi0uNDQxIDIuMDU5LS4zNTMgMy44NTMtLjgyNCA1LjM4Mi0xLjQxMmwzLjE3Ni0xLjg1M2MuMzUzLS4yMzUuNTU5LS40NDEuNjE4LS42MTguMDU5LS4xMTguMDg4LS4yMDYuMDg4LS4yNjUtLjA1OS0uMDU5LS4xMTctLjE0Ny0uMTc2LS4yNjVzLS4yMzUtLjMyNC0uNTI5LS42MThjLS43NjUtLjc2NS0xLjgyMy0xLjM4Mi0zLjE3Ni0xLjg1My0xLjI5NC0uNDcxLTIuNjc2LS44MjQtNC4xNDctMS4wNTktMS40NzEtLjI5NC0yLjk0MS0uNS00LjQxMi0uNjE4bC0zLjUyOS0uMTc2Yy0yLjcwNiAwLTUuMzUzLjIzNS03Ljk0MS43MDZTNyA2IDQuNzA2IDcuNTI5em0zMC41MjkgMjkuMTE4Yy4zNTMtLjIzNS41NTktLjQ0MS42MTgtLjYxOC4wNTktLjExNy4wODgtLjIwNi4wODgtLjI2NVYzMi41Yy0uMDU5LjA1OS0uMTE3LjA4OC0uMTc2LjA4OHMtLjA4OC4wMjktLjA4OC4wODhIMzUuNWwtLjE3Ni4wODhjLS4wNTkuMDU5LS4xMTguMDg4LS4xNzYuMDg4LTIuNjQ3IDEtNS4xNDcgMS43MDYtNy41IDIuMTE4LTIuMjk0LjM1My00Ljg1My41MjktNy42NzYuNTI5LS44ODIgMC0yLjA1OS0uMDU5LTMuNTI5LS4xNzZsLTQuNTg4LS41MjktNC41LS44ODJDNS45NDEgMzMuNSA0LjgyNCAzMy4wMjkgNCAzMi41djMuMjY1YzAgLjA1OS4wMjkuMTQ3LjA4OC4yNjUuMDU5LjE3Ni4yNjUuMzgzLjYxOC42MTguNzY1Ljc2NSAxLjc5NCAxLjM4MiAzLjA4OCAxLjg1MyAxLjM1My40NzEgMi43NjUuODUzIDQuMjM1IDEuMTQ3bDQuMzI0LjUyOSAzLjYxOC4wODhjMi43MDYgMCA1LjM1My0uMjA2IDcuOTQxLS42MTggMi41ODgtLjQ3MSA1LjAyOS0xLjQ3IDcuMzIzLTN6Ii8+JiN4YTs8L3N2Zz4=;" vertex="1" parent="JRQPhsYu2ruVvUA1gsYU-1">
          <mxGeometry x="307.5" y="205.5" width="41" height="45" as="geometry" />
        </mxCell>
        <mxCell id="JRQPhsYu2ruVvUA1gsYU-5" value="my doctor&#39;s&lt;br&gt;&amp;lt;database&amp;gt;" style="text;html=1;align=center;verticalAlign=middle;resizable=0;points=[];autosize=1;strokeColor=none;fillColor=none;" vertex="1" parent="JRQPhsYu2ruVvUA1gsYU-1">
          <mxGeometry x="283" y="250" width="90" height="40" as="geometry" />
        </mxCell>
        <mxCell id="JRQPhsYu2ruVvUA1gsYU-6" value="get_all_owners" style="ellipse;whiteSpace=wrap;html=1;fillColor=#d5e8d4;strokeColor=none;" vertex="1" parent="JRQPhsYu2ruVvUA1gsYU-1">
          <mxGeometry x="445" y="158.5" width="105" height="42.5" as="geometry" />
        </mxCell>
        <mxCell id="JRQPhsYu2ruVvUA1gsYU-7" value="get_owner_and_pet" style="ellipse;whiteSpace=wrap;html=1;fillColor=#d5e8d4;strokeColor=none;" vertex="1" parent="JRQPhsYu2ruVvUA1gsYU-1">
          <mxGeometry x="442.5" y="231" width="105" height="45" as="geometry" />
        </mxCell>
        <mxCell id="JRQPhsYu2ruVvUA1gsYU-8" value="change_owner_of_pet" style="ellipse;whiteSpace=wrap;html=1;fillColor=#d5e8d4;strokeColor=none;" vertex="1" parent="JRQPhsYu2ruVvUA1gsYU-1">
          <mxGeometry x="80" y="231" width="130" height="45" as="geometry" />
        </mxCell>
        <mxCell id="JRQPhsYu2ruVvUA1gsYU-9" value="&lt;font style=&quot;font-size: 24px;&quot;&gt;🧑‍⚕️&lt;/font&gt;" style="text;html=1;align=center;verticalAlign=middle;whiteSpace=wrap;rounded=0;" vertex="1" parent="JRQPhsYu2ruVvUA1gsYU-1">
          <mxGeometry x="313" y="177.5" width="30" height="30" as="geometry" />
        </mxCell>
        <mxCell id="JRQPhsYu2ruVvUA1gsYU-10" value="" style="ellipse;shape=cloud;whiteSpace=wrap;html=1;fillStyle=solid;fillColor=#989898;strokeColor=none;opacity=80;" vertex="1" parent="JRQPhsYu2ruVvUA1gsYU-1">
          <mxGeometry x="222.38" y="160.5" width="211.25" height="124" as="geometry" />
        </mxCell>
      </root>
    </mxGraphModel>
  </diagram>
  <diagram name="hydra" id="otPAULwPVxEyQMyppY6O">
    <mxGraphModel dx="679" dy="364" grid="1" gridSize="10" guides="1" tooltips="1" connect="1" arrows="1" fold="1" page="1" pageScale="1" pageWidth="850" pageHeight="1100" math="0" shadow="0">
      <root>
        <mxCell id="dE04LZ7roU525CjqMjfS-0" />
        <mxCell id="dE04LZ7roU525CjqMjfS-1" parent="dE04LZ7roU525CjqMjfS-0" />
        <mxCell id="0W0mMY4acsykLkLVvqdd-0" value="POST&lt;br&gt;/owners" style="ellipse;whiteSpace=wrap;html=1;fillColor=#d5e8d4;strokeColor=none;" vertex="1" parent="dE04LZ7roU525CjqMjfS-1">
          <mxGeometry x="180" y="240" width="130" height="45" as="geometry" />
        </mxCell>
        <mxCell id="0W0mMY4acsykLkLVvqdd-1" value="" style="rounded=1;whiteSpace=wrap;html=1;fillColor=#d5e8d4;strokeColor=none;" vertex="1" parent="dE04LZ7roU525CjqMjfS-1">
          <mxGeometry x="398" y="348" width="60" height="80" as="geometry" />
        </mxCell>
        <mxCell id="0W0mMY4acsykLkLVvqdd-2" value="" style="shape=image;editableCssRules=.*;verticalLabelPosition=bottom;labelBackgroundColor=default;verticalAlign=top;aspect=fixed;imageAspect=0;image=data:image/svg+xml,PHN2ZyB4bWxucz0iaHR0cDovL3d3dy53My5vcmcvMjAwMC9zdmciIHZpZXdCb3g9Ii0wLjUgLTAuNSA0MC45NDEgNDUuMDg4IiBoZWlnaHQ9IjQ1LjA4OCIgd2lkdGg9IjQwLjk0MSIgc3R5bGU9ImNvbG9yLXNjaGVtZTogbGlnaHQgZGFyazsiPiYjeGE7CSAgPHN0eWxlIHR5cGU9InRleHQvY3NzIj4uc3QwIHsgc3RvcC1jb2xvcjogbGlnaHQtZGFyayhyZ2IoMCwgMCwgMCksIHJnYigxNTUsIDExOCwgMjU1KSk7IH0gLnN0MSB7IHN0b3AtY29sb3I6IGxpZ2h0LWRhcmsocmdiKDAsIDAsIDApLCByZ2IoNzEsIDEyLCAyMzcpKTsgfSA8L3N0eWxlPiYjeGE7CTxkZWZzPiYjeGE7CQk8bGluZWFyR3JhZGllbnQgZ3JhZGllbnRVbml0cz0idXNlclNwYWNlT25Vc2UiIHkyPSIzNy43MzgiIHgyPSIzNy42MDIiIHkxPSI1LjkiIHgxPSIzLjIxMyIgaWQ9IkEiPiYjeGE7CQkJPHN0b3AgY2xhc3M9InN0MCIvPiYjeGE7CQkJPHN0b3AgY2xhc3M9InN0MSIgb2Zmc2V0PSIxIi8+JiN4YTsJCTwvbGluZWFyR3JhZGllbnQ+JiN4YTsJPC9kZWZzPiYjeGE7CTxwYXRoIGZpbGw9InVybCgjQSkiIGQ9Ik0zOC4xNDcgNC4wODhjLjcwNi41ODggMS4yNjUgMS4yMzUgMS42NzYgMS45NDEuNDEyLjY0Ny42MTggMS40NDEuNjE4IDIuMzgydjI3LjM1M2MwIC44ODItLjIzNSAxLjY3Ni0uNzA2IDIuMzgycy0xIDEuMzUzLTEuNTg4IDEuOTQxYy0uNTI5LjQ3MS0xLjIwNi45MTItMi4wMyAxLjMyNC0uNzY1LjQxMi0xLjU4OC43OTQtMi40NzEgMS4xNDctMS44MjMuNzA2LTMuOTEyIDEuMjA2LTYuMjY1IDEuNS0yLjI5NC4zNTMtNC43NjUuNTI5LTcuNDEyLjUyOXMtNS4xNDctLjE3Ni03LjUtLjUyOWMtMi4yOTQtLjI5NC00LjM1My0uNzk0LTYuMTc2LTEuNWwtMi40NzEtLjk3YTguNjQgOC42NCAwIDAgMS0yLjAyOS0xLjVDLjI2NSAzOC44NTMtLjUgMzcuNDEyLS41IDM1Ljc2NVY4LjQxMmMwLS45NDEuMjM1LTEuNzM1LjcwNi0yLjM4Mi40NzEtLjcwNiAxLTEuMzUzIDEuNTg4LTEuOTQxIDEuMTc2LTEgMi42NzYtMS44NTMgNC41LTIuNTU5QzguMTE4Ljg4MiAxMC4xNzYuMzgyIDEyLjQ3MS4wMjljMi4zNTMtLjM1MyA0Ljg1My0uNTI5IDcuNS0uNTI5czUuMTE4LjE3NiA3LjQxMi41MjljMi4zNTMuMzUzIDQuNDQxLjg1MyA2LjI2NSAxLjUuODgyLjM1MyAxLjcwNi43MzUgMi40NzEgMS4xNDcuODI0LjM1MyAxLjUuODI0IDIuMDMgMS40MTJ6bS0yLjIwNiAxOS4zMjRjLTIuNzY1Ljk0MS01LjM4MiAxLjY3Ni03Ljg1MyAyLjIwNi0yLjQxMi41MjktNS4xMTguNzk0LTguMTE4Ljc5NC0yLjY0NyAwLTUuMTQ3LS4xNzctNy41LS41MjktMi4yOTQtLjM1My00LjM1My0uODUzLTYuMTc2LTEuNS0uOTQxLS4yOTQtMS43MDYtLjYxOC0yLjI5NC0uOTcxdjMuMTc3bC4xNzYuMzUzYy4wNTkuMTE4LjIzNS4zMjQuNTI5LjYxOC43NjUuNzA2IDEuNzk0IDEuMjk0IDMuMDg4IDEuNzY1IDEuMzUzLjQ3MSAyLjc2NS44NTMgNC4yMzUgMS4xNDdsNC4zMjQuNTI5IDMuNjE4LjE3NmE1MC40NSA1MC40NSAwIDAgMCA3Ljk0MS0uNjE4YzIuNTg4LS40NyA1LjAyOS0xLjQ3IDcuMzIzLTMgLjM1My0uMjM1LjU1OS0uNDQxLjYxOC0uNjE4LjA1OS0uMTE4LjA4OC0uMjM1LjA4OC0uMzUzem0wLTkuMDg4Yy0yLjc2NS45NDEtNS4zODIgMS42NzYtNy44NTMgMi4yMDYtMi40MTIuNTI5LTUuMTE4Ljc5NC04LjExOC43OTQtLjg4MiAwLTIuMDU5LS4wNTktMy41MjktLjE3NmwtNC41ODgtLjUyOS00LjUtLjg4MmMtMS40MTItLjQxMi0yLjUyOS0uODgyLTMuMzUzLTEuNDEyVjE3LjVjMCAuMDU5LjAyOS4xNDcuMDg4LjI2NS4xMTguMDU5LjIwNi4xNDcuMjY1LjI2NWwuMzUzLjM1M2MuNzY1Ljc2NSAxLjc5NCAxLjM4MiAzLjA4OCAxLjg1MyAxLjM1My40NzEgMi43NjUuODUzIDQuMjM1IDEuMTQ3bDQuMzI0LjUyOSAzLjYxOC4xNzZjMi43MDYgMCA1LjM1My0uMjM1IDcuOTQxLS43MDZzNS4wMjktMS40NzEgNy4zMjMtM2MuMzUzLS4yMzUuNTU5LS40NDEuNjE4LS42MTguMDU5LS4xMTguMDg4LS4yMDYuMDg4LS4yNjV6TTQuNzA2IDcuNTI5Yy0uMjk0LjExOC0uNS4zMjQtLjYxOC42MTgtLjA1OS4xMTgtLjA4OC4yMDYtLjA4OC4yNjVzLjAyOS4xNDcuMDg4LjI2NWMuMTE4LjA1OS4yMDYuMTQ3LjI2NS4yNjVsLjM1My4zNTNjLjc2NS43NjUgMS43OTQgMS4zODIgMy4wODggMS44NTMgMS4zNTMuNDcxIDIuNzY1Ljg1MyA0LjIzNSAxLjE0N2w0LjMyNC41MjkgMy42MTguMTc2YzIuNDEyIDAgNC42NDctLjE0NyA2LjcwNi0uNDQxIDIuMDU5LS4zNTMgMy44NTMtLjgyNCA1LjM4Mi0xLjQxMmwzLjE3Ni0xLjg1M2MuMzUzLS4yMzUuNTU5LS40NDEuNjE4LS42MTguMDU5LS4xMTguMDg4LS4yMDYuMDg4LS4yNjUtLjA1OS0uMDU5LS4xMTctLjE0Ny0uMTc2LS4yNjVzLS4yMzUtLjMyNC0uNTI5LS42MThjLS43NjUtLjc2NS0xLjgyMy0xLjM4Mi0zLjE3Ni0xLjg1My0xLjI5NC0uNDcxLTIuNjc2LS44MjQtNC4xNDctMS4wNTktMS40NzEtLjI5NC0yLjk0MS0uNS00LjQxMi0uNjE4bC0zLjUyOS0uMTc2Yy0yLjcwNiAwLTUuMzUzLjIzNS03Ljk0MS43MDZTNyA2IDQuNzA2IDcuNTI5em0zMC41MjkgMjkuMTE4Yy4zNTMtLjIzNS41NTktLjQ0MS42MTgtLjYxOC4wNTktLjExNy4wODgtLjIwNi4wODgtLjI2NVYzMi41Yy0uMDU5LjA1OS0uMTE3LjA4OC0uMTc2LjA4OHMtLjA4OC4wMjktLjA4OC4wODhIMzUuNWwtLjE3Ni4wODhjLS4wNTkuMDU5LS4xMTguMDg4LS4xNzYuMDg4LTIuNjQ3IDEtNS4xNDcgMS43MDYtNy41IDIuMTE4LTIuMjk0LjM1My00Ljg1My41MjktNy42NzYuNTI5LS44ODIgMC0yLjA1OS0uMDU5LTMuNTI5LS4xNzZsLTQuNTg4LS41MjktNC41LS44ODJDNS45NDEgMzMuNSA0LjgyNCAzMy4wMjkgNCAzMi41djMuMjY1YzAgLjA1OS4wMjkuMTQ3LjA4OC4yNjUuMDU5LjE3Ni4yNjUuMzgzLjYxOC42MTguNzY1Ljc2NSAxLjc5NCAxLjM4MiAzLjA4OCAxLjg1MyAxLjM1My40NzEgMi43NjUuODUzIDQuMjM1IDEuMTQ3bDQuMzI0LjUyOSAzLjYxOC4wODhjMi43MDYgMCA1LjM1My0uMjA2IDcuOTQxLS42MTggMi41ODgtLjQ3MSA1LjAyOS0xLjQ3IDcuMzIzLTN6Ii8+JiN4YTs8L3N2Zz4=;" vertex="1" parent="dE04LZ7roU525CjqMjfS-1">
          <mxGeometry x="407.5" y="378.5" width="41" height="45" as="geometry" />
        </mxCell>
        <mxCell id="0W0mMY4acsykLkLVvqdd-3" value="my doctor&#39;s&lt;br&gt;&amp;lt;database&amp;gt;" style="text;html=1;align=center;verticalAlign=middle;resizable=0;points=[];autosize=1;strokeColor=none;fillColor=none;" vertex="1" parent="dE04LZ7roU525CjqMjfS-1">
          <mxGeometry x="383" y="423" width="90" height="40" as="geometry" />
        </mxCell>
        <mxCell id="0W0mMY4acsykLkLVvqdd-4" value="GET&lt;br&gt;/owners" style="ellipse;whiteSpace=wrap;html=1;fillColor=#d5e8d4;strokeColor=none;" vertex="1" parent="dE04LZ7roU525CjqMjfS-1">
          <mxGeometry x="545" y="242.5" width="105" height="42.5" as="geometry" />
        </mxCell>
        <mxCell id="0W0mMY4acsykLkLVvqdd-5" value="GET&lt;br&gt;/owners/{id}" style="ellipse;whiteSpace=wrap;html=1;fillColor=#d5e8d4;strokeColor=none;" vertex="1" parent="dE04LZ7roU525CjqMjfS-1">
          <mxGeometry x="542.5" y="315" width="105" height="45" as="geometry" />
        </mxCell>
        <mxCell id="0W0mMY4acsykLkLVvqdd-6" value="POST&lt;br&gt;/owner/{id}/{pet-id}/change-owner" style="ellipse;whiteSpace=wrap;html=1;fillColor=#d5e8d4;strokeColor=none;" vertex="1" parent="dE04LZ7roU525CjqMjfS-1">
          <mxGeometry x="180" y="315" width="130" height="45" as="geometry" />
        </mxCell>
        <mxCell id="0W0mMY4acsykLkLVvqdd-7" value="&lt;font style=&quot;font-size: 24px;&quot;&gt;🧑‍⚕️&lt;/font&gt;" style="text;html=1;align=center;verticalAlign=middle;whiteSpace=wrap;rounded=0;" vertex="1" parent="dE04LZ7roU525CjqMjfS-1">
          <mxGeometry x="413" y="350.5" width="30" height="30" as="geometry" />
        </mxCell>
        <mxCell id="0W0mMY4acsykLkLVvqdd-8" value="" style="ellipse;shape=cloud;whiteSpace=wrap;html=1;fillStyle=solid;fillColor=#989898;strokeColor=none;opacity=80;" vertex="1" parent="dE04LZ7roU525CjqMjfS-1">
          <mxGeometry x="322.38" y="333.5" width="211.25" height="124" as="geometry" />
        </mxCell>
        <mxCell id="0W0mMY4acsykLkLVvqdd-9" value="all owners resource" style="rounded=1;whiteSpace=wrap;html=1;" vertex="1" parent="dE04LZ7roU525CjqMjfS-1">
          <mxGeometry x="365" y="270" width="120" height="30" as="geometry" />
        </mxCell>
        <mxCell id="0W0mMY4acsykLkLVvqdd-11" value="owner resource (many)" style="rounded=1;whiteSpace=wrap;html=1;" vertex="1" parent="dE04LZ7roU525CjqMjfS-1">
          <mxGeometry x="365" y="310" width="120" height="30" as="geometry" />
        </mxCell>
        <mxCell id="0W0mMY4acsykLkLVvqdd-12" value="&lt;b style=&quot;color: rgb(255, 51, 51);&quot;&gt;&lt;i&gt;&lt;font style=&quot;font-size: 20px;&quot;&gt;?!&lt;/font&gt;&lt;/i&gt;&lt;/b&gt;" style="text;html=1;whiteSpace=wrap;strokeColor=none;fillColor=none;align=center;verticalAlign=middle;rounded=0;" vertex="1" parent="dE04LZ7roU525CjqMjfS-1">
          <mxGeometry x="260" y="303" width="30" height="37" as="geometry" />
        </mxCell>
        <mxCell id="0W0mMY4acsykLkLVvqdd-13" value="&lt;b style=&quot;color: rgb(255, 51, 51);&quot;&gt;&lt;i&gt;&lt;font style=&quot;font-size: 20px;&quot;&gt;?!&lt;/font&gt;&lt;/i&gt;&lt;/b&gt;" style="text;html=1;whiteSpace=wrap;strokeColor=none;fillColor=none;align=center;verticalAlign=middle;rounded=0;" vertex="1" parent="dE04LZ7roU525CjqMjfS-1">
          <mxGeometry x="180" y="333.5" width="30" height="37" as="geometry" />
        </mxCell>
      </root>
    </mxGraphModel>
  </diagram>
  <diagram name="sparql" id="AQKtwkQNPnpmsIv2Fy-C">
    <mxGraphModel dx="983" dy="528" grid="1" gridSize="10" guides="1" tooltips="1" connect="1" arrows="1" fold="1" page="1" pageScale="1" pageWidth="850" pageHeight="1100" math="0" shadow="0">
      <root>
        <mxCell id="JRmcm6AJMAGdNBxj4xyR-0" />
        <mxCell id="JRmcm6AJMAGdNBxj4xyR-1" parent="JRmcm6AJMAGdNBxj4xyR-0" />
        <mxCell id="zqUtfvlJHtHa1u89RjNl-4" value="" style="rounded=1;whiteSpace=wrap;html=1;fillColor=#f8cecc;strokeColor=none;" vertex="1" parent="JRmcm6AJMAGdNBxj4xyR-1">
          <mxGeometry x="270" y="145" width="130" height="140" as="geometry" />
        </mxCell>
        <mxCell id="zqUtfvlJHtHa1u89RjNl-2" value="" style="group" vertex="1" connectable="0" parent="JRmcm6AJMAGdNBxj4xyR-1">
          <mxGeometry x="290" y="170" width="90" height="115" as="geometry" />
        </mxCell>
        <mxCell id="JRmcm6AJMAGdNBxj4xyR-3" value="" style="rounded=1;whiteSpace=wrap;html=1;fillColor=#d5e8d4;strokeColor=none;" vertex="1" parent="zqUtfvlJHtHa1u89RjNl-2">
          <mxGeometry x="15" width="60" height="80" as="geometry" />
        </mxCell>
        <mxCell id="JRmcm6AJMAGdNBxj4xyR-4" value="" style="shape=image;editableCssRules=.*;verticalLabelPosition=bottom;labelBackgroundColor=default;verticalAlign=top;aspect=fixed;imageAspect=0;image=data:image/svg+xml,PHN2ZyB4bWxucz0iaHR0cDovL3d3dy53My5vcmcvMjAwMC9zdmciIHZpZXdCb3g9Ii0wLjUgLTAuNSA0MC45NDEgNDUuMDg4IiBoZWlnaHQ9IjQ1LjA4OCIgd2lkdGg9IjQwLjk0MSIgc3R5bGU9ImNvbG9yLXNjaGVtZTogbGlnaHQgZGFyazsiPiYjeGE7CSAgPHN0eWxlIHR5cGU9InRleHQvY3NzIj4uc3QwIHsgc3RvcC1jb2xvcjogbGlnaHQtZGFyayhyZ2IoMCwgMCwgMCksIHJnYigxNTUsIDExOCwgMjU1KSk7IH0gLnN0MSB7IHN0b3AtY29sb3I6IGxpZ2h0LWRhcmsocmdiKDAsIDAsIDApLCByZ2IoNzEsIDEyLCAyMzcpKTsgfSA8L3N0eWxlPiYjeGE7CTxkZWZzPiYjeGE7CQk8bGluZWFyR3JhZGllbnQgZ3JhZGllbnRVbml0cz0idXNlclNwYWNlT25Vc2UiIHkyPSIzNy43MzgiIHgyPSIzNy42MDIiIHkxPSI1LjkiIHgxPSIzLjIxMyIgaWQ9IkEiPiYjeGE7CQkJPHN0b3AgY2xhc3M9InN0MCIvPiYjeGE7CQkJPHN0b3AgY2xhc3M9InN0MSIgb2Zmc2V0PSIxIi8+JiN4YTsJCTwvbGluZWFyR3JhZGllbnQ+JiN4YTsJPC9kZWZzPiYjeGE7CTxwYXRoIGZpbGw9InVybCgjQSkiIGQ9Ik0zOC4xNDcgNC4wODhjLjcwNi41ODggMS4yNjUgMS4yMzUgMS42NzYgMS45NDEuNDEyLjY0Ny42MTggMS40NDEuNjE4IDIuMzgydjI3LjM1M2MwIC44ODItLjIzNSAxLjY3Ni0uNzA2IDIuMzgycy0xIDEuMzUzLTEuNTg4IDEuOTQxYy0uNTI5LjQ3MS0xLjIwNi45MTItMi4wMyAxLjMyNC0uNzY1LjQxMi0xLjU4OC43OTQtMi40NzEgMS4xNDctMS44MjMuNzA2LTMuOTEyIDEuMjA2LTYuMjY1IDEuNS0yLjI5NC4zNTMtNC43NjUuNTI5LTcuNDEyLjUyOXMtNS4xNDctLjE3Ni03LjUtLjUyOWMtMi4yOTQtLjI5NC00LjM1My0uNzk0LTYuMTc2LTEuNWwtMi40NzEtLjk3YTguNjQgOC42NCAwIDAgMS0yLjAyOS0xLjVDLjI2NSAzOC44NTMtLjUgMzcuNDEyLS41IDM1Ljc2NVY4LjQxMmMwLS45NDEuMjM1LTEuNzM1LjcwNi0yLjM4Mi40NzEtLjcwNiAxLTEuMzUzIDEuNTg4LTEuOTQxIDEuMTc2LTEgMi42NzYtMS44NTMgNC41LTIuNTU5QzguMTE4Ljg4MiAxMC4xNzYuMzgyIDEyLjQ3MS4wMjljMi4zNTMtLjM1MyA0Ljg1My0uNTI5IDcuNS0uNTI5czUuMTE4LjE3NiA3LjQxMi41MjljMi4zNTMuMzUzIDQuNDQxLjg1MyA2LjI2NSAxLjUuODgyLjM1MyAxLjcwNi43MzUgMi40NzEgMS4xNDcuODI0LjM1MyAxLjUuODI0IDIuMDMgMS40MTJ6bS0yLjIwNiAxOS4zMjRjLTIuNzY1Ljk0MS01LjM4MiAxLjY3Ni03Ljg1MyAyLjIwNi0yLjQxMi41MjktNS4xMTguNzk0LTguMTE4Ljc5NC0yLjY0NyAwLTUuMTQ3LS4xNzctNy41LS41MjktMi4yOTQtLjM1My00LjM1My0uODUzLTYuMTc2LTEuNS0uOTQxLS4yOTQtMS43MDYtLjYxOC0yLjI5NC0uOTcxdjMuMTc3bC4xNzYuMzUzYy4wNTkuMTE4LjIzNS4zMjQuNTI5LjYxOC43NjUuNzA2IDEuNzk0IDEuMjk0IDMuMDg4IDEuNzY1IDEuMzUzLjQ3MSAyLjc2NS44NTMgNC4yMzUgMS4xNDdsNC4zMjQuNTI5IDMuNjE4LjE3NmE1MC40NSA1MC40NSAwIDAgMCA3Ljk0MS0uNjE4YzIuNTg4LS40NyA1LjAyOS0xLjQ3IDcuMzIzLTMgLjM1My0uMjM1LjU1OS0uNDQxLjYxOC0uNjE4LjA1OS0uMTE4LjA4OC0uMjM1LjA4OC0uMzUzem0wLTkuMDg4Yy0yLjc2NS45NDEtNS4zODIgMS42NzYtNy44NTMgMi4yMDYtMi40MTIuNTI5LTUuMTE4Ljc5NC04LjExOC43OTQtLjg4MiAwLTIuMDU5LS4wNTktMy41MjktLjE3NmwtNC41ODgtLjUyOS00LjUtLjg4MmMtMS40MTItLjQxMi0yLjUyOS0uODgyLTMuMzUzLTEuNDEyVjE3LjVjMCAuMDU5LjAyOS4xNDcuMDg4LjI2NS4xMTguMDU5LjIwNi4xNDcuMjY1LjI2NWwuMzUzLjM1M2MuNzY1Ljc2NSAxLjc5NCAxLjM4MiAzLjA4OCAxLjg1MyAxLjM1My40NzEgMi43NjUuODUzIDQuMjM1IDEuMTQ3bDQuMzI0LjUyOSAzLjYxOC4xNzZjMi43MDYgMCA1LjM1My0uMjM1IDcuOTQxLS43MDZzNS4wMjktMS40NzEgNy4zMjMtM2MuMzUzLS4yMzUuNTU5LS40NDEuNjE4LS42MTguMDU5LS4xMTguMDg4LS4yMDYuMDg4LS4yNjV6TTQuNzA2IDcuNTI5Yy0uMjk0LjExOC0uNS4zMjQtLjYxOC42MTgtLjA1OS4xMTgtLjA4OC4yMDYtLjA4OC4yNjVzLjAyOS4xNDcuMDg4LjI2NWMuMTE4LjA1OS4yMDYuMTQ3LjI2NS4yNjVsLjM1My4zNTNjLjc2NS43NjUgMS43OTQgMS4zODIgMy4wODggMS44NTMgMS4zNTMuNDcxIDIuNzY1Ljg1MyA0LjIzNSAxLjE0N2w0LjMyNC41MjkgMy42MTguMTc2YzIuNDEyIDAgNC42NDctLjE0NyA2LjcwNi0uNDQxIDIuMDU5LS4zNTMgMy44NTMtLjgyNCA1LjM4Mi0xLjQxMmwzLjE3Ni0xLjg1M2MuMzUzLS4yMzUuNTU5LS40NDEuNjE4LS42MTguMDU5LS4xMTguMDg4LS4yMDYuMDg4LS4yNjUtLjA1OS0uMDU5LS4xMTctLjE0Ny0uMTc2LS4yNjVzLS4yMzUtLjMyNC0uNTI5LS42MThjLS43NjUtLjc2NS0xLjgyMy0xLjM4Mi0zLjE3Ni0xLjg1My0xLjI5NC0uNDcxLTIuNjc2LS44MjQtNC4xNDctMS4wNTktMS40NzEtLjI5NC0yLjk0MS0uNS00LjQxMi0uNjE4bC0zLjUyOS0uMTc2Yy0yLjcwNiAwLTUuMzUzLjIzNS03Ljk0MS43MDZTNyA2IDQuNzA2IDcuNTI5em0zMC41MjkgMjkuMTE4Yy4zNTMtLjIzNS41NTktLjQ0MS42MTgtLjYxOC4wNTktLjExNy4wODgtLjIwNi4wODgtLjI2NVYzMi41Yy0uMDU5LjA1OS0uMTE3LjA4OC0uMTc2LjA4OHMtLjA4OC4wMjktLjA4OC4wODhIMzUuNWwtLjE3Ni4wODhjLS4wNTkuMDU5LS4xMTguMDg4LS4xNzYuMDg4LTIuNjQ3IDEtNS4xNDcgMS43MDYtNy41IDIuMTE4LTIuMjk0LjM1My00Ljg1My41MjktNy42NzYuNTI5LS44ODIgMC0yLjA1OS0uMDU5LTMuNTI5LS4xNzZsLTQuNTg4LS41MjktNC41LS44ODJDNS45NDEgMzMuNSA0LjgyNCAzMy4wMjkgNCAzMi41djMuMjY1YzAgLjA1OS4wMjkuMTQ3LjA4OC4yNjUuMDU5LjE3Ni4yNjUuMzgzLjYxOC42MTguNzY1Ljc2NSAxLjc5NCAxLjM4MiAzLjA4OCAxLjg1MyAxLjM1My40NzEgMi43NjUuODUzIDQuMjM1IDEuMTQ3bDQuMzI0LjUyOSAzLjYxOC4wODhjMi43MDYgMCA1LjM1My0uMjA2IDcuOTQxLS42MTggMi41ODgtLjQ3MSA1LjAyOS0xLjQ3IDcuMzIzLTN6Ii8+JiN4YTs8L3N2Zz4=;" vertex="1" parent="zqUtfvlJHtHa1u89RjNl-2">
          <mxGeometry x="24.5" y="30.5" width="41" height="45" as="geometry" />
        </mxCell>
        <mxCell id="JRmcm6AJMAGdNBxj4xyR-5" value="my doctor&#39;s&lt;br&gt;&amp;lt;database&amp;gt;" style="text;html=1;align=center;verticalAlign=middle;resizable=0;points=[];autosize=1;strokeColor=none;fillColor=none;" vertex="1" parent="zqUtfvlJHtHa1u89RjNl-2">
          <mxGeometry y="75" width="90" height="40" as="geometry" />
        </mxCell>
        <mxCell id="JRmcm6AJMAGdNBxj4xyR-9" value="&lt;font style=&quot;font-size: 24px;&quot;&gt;🧑‍⚕️&lt;/font&gt;" style="text;html=1;align=center;verticalAlign=middle;whiteSpace=wrap;rounded=0;" vertex="1" parent="zqUtfvlJHtHa1u89RjNl-2">
          <mxGeometry x="30" y="2.5" width="30" height="30" as="geometry" />
        </mxCell>
        <mxCell id="zqUtfvlJHtHa1u89RjNl-3" value="" style="shape=image;verticalLabelPosition=bottom;labelBackgroundColor=default;verticalAlign=top;aspect=fixed;imageAspect=0;editableCssRules=.*;image=data:image/svg+xml,PHN2ZyB2aWV3Qm94PSIwIC0wLjAwMDE2NDAzMTk4MjQyMTg3NSA0ODQuODYxOTk5NTExNzE4NzUgNTI2LjAwMDE4MzEwNTQ2ODgiIHhtbG5zPSJodHRwOi8vd3d3LnczLm9yZy8yMDAwL3N2ZyIgd2lkdGg9IjQ4NC44NjE5OTk1MTE3MTg3NSIgaGVpZ2h0PSI1MjYuMDAwMTgzMTA1NDY4OCI+JiN4YTsgICAgPHJlY3QgaGVpZ2h0PSI0ODQuODYyIiB3aWR0aD0iNDg0Ljg2MiIgeT0iNDAuNDczIi8+JiN4YTsgICAgPHJlY3QgaGVpZ2h0PSIzMjkuODQ3IiB3aWR0aD0iNDY0LjE5MiIgZmlsbD0iI0ZGRkZGRiIgeD0iOS40NzciIHk9IjUwLjgwOCIvPiYjeGE7ICAgIDxwYXRoIGZpbGw9IiMwQzQ3OUMiIGQ9Ik0zODMuNDc2LDI2Ny4zNDNjLTIuNTQ0LTEuMzQ2LTUuMTQtMi40OTMtNy43NDMtMy41MTZsMS44NjMtMC4xNWMwLDAtMTYuNjA4LTcuMzU0LTE4LjA1Ny02MC43MjIgIGMtMS40MzgtNTMuMzcyLDE1LjgyOC02Mi40NzgsMTUuODI4LTYyLjQ3OGwtMi40OCwwLjEwOWMxMy4wNDUtNi42OSwyNC4yNjUtMTcuMjY3LDMxLjY2OS0zMS4yMTYgIGMxOS4yOTUtMzYuMjkxLDUuNDg4LTgxLjM2Mi0zMC44MS0xMDAuNjU3QzMzNy40MzYtMTAuNTYzLDI5Mi4zNzQsMy4yMDcsMjczLjA5LDM5LjUzYy03LjkyNywxNC44OTktMTAuMTc4LDMxLjI3My03LjY3Nyw0Ni43MzMgIGwtMC44NTEtMS4zMDZjMCwwLDQuMzczLDE5LjM2NS00MS4wMzIsNDcuNTVjLTQ1LjM5NywyOC4yLTY1Ljg3NywxNC4xNTktNjUuODc3LDE0LjE1OWwxLjMwMiwxLjkyNSAgYy0xLjI5OC0wLjgwMy0yLjU0NC0xLjYyNC0zLjkwMS0yLjMzM2MtMzYuMzA2LTE5LjI5NC04MS4zOC01LjUwOS0xMDAuNjY3LDMwLjgwNGMtMTkuMjgxLDM2LjMwOS01LjQ4OSw4MS4zNjUsMzAuODEzLDEwMC42NjggIGMyNy4wNjQsMTQuMzY0LDU4Ljk3NCwxMC4zNiw4MS40NjEtNy42NTVsLTAuNDg3LDAuOTQ2YzAsMCwxNi41MzEtMTMuNTk5LDY0LjE2LDExLjk3M2MzNy42MDEsMjAuMTc4LDQzLjE4NCwzOS45NTYsNDMuODk5LDQ3LjM4MyAgYy0wLjk4MywyNy41NywxMy4zODgsNTQuNjE4LDM5LjM4OSw2OC40MzNjMzYuMzAxLDE5LjI5OSw4MS4zNzQsNS40OTgsMTAwLjY1Ny0zMC44MDQgIEM0MzMuNTcxLDMzMS43MDQsNDE5Ljc4NiwyODYuNjI0LDM4My40NzYsMjY3LjM0M3ogTTI5OS41NDIsMjc3LjEyOGMtNi4wMTgsMi4xMjktMjMuMjAzLDQuNDg3LTU5LjM4OS0xNC45MjEgIGMtMzkuMTg3LTIxLjA0LTQ1LjAwNS0zOC42MTUtNDUuODU1LTQzLjg5MWMwLjU1Ny02LjQwMSwwLjIwMi0xMi43OTEtMC44OTEtMTkuMDJsMC4yMzksMC4zNTljMCwwLTMuMTg5LTE3LjA5Niw0MS42NS00NC45NDMgIGM0MC4xMzMtMjQuOTA4LDU4LjM3Ni0xOS45NTUsNjEuNzcxLTE4LjY1M2MyLjE4NSwxLjQ4NSw0LjQ1LDIuODY3LDYuODI1LDQuMTMxYzQuNTE4LDIuMzk4LDkuMTc0LDQuMjgzLDEzLjg4OCw1LjY3MiAgYzUuNTIsNS4yNTcsMTUuNjc4LDIwLjE3OCwxNi43MzMsNTkuNDEzYzEuMDc4LDM5LjUzNS0xMC41MzMsNTQuNzc5LTE2Ljg2NSw2MC4xNjhDMzExLjEyMiwyNjguMzk5LDMwNS4wMjIsMjcyLjM0LDI5OS41NDIsMjc3LjEyOCAgeiIvPiYjeGE7ICAgIDxnPiYjeGE7ICAgICAgPHBhdGggZmlsbD0iI0ZGRkZGRiIgZD0iTTI5NC42MzEsMzIuNGMtMjEuNjU5LDIzLjY5NC0yMi4xMTgsNTguNTQ0LTEuMjQ2LDc4LjI2NGMtMTAuMzE2LTkuOTM1LTEwLjA5My0zMC42MDgsMC4zMy01MC4zODcgICBjMS4zNDItMS43NzQsNS4yMjQtNS45NjEsMTAuODk4LTQuMDU1YzAuNTY5LDAuMTk0LDAuOTUxLDAuMjQ1LDEuMTcsMC4yMTNjMS4yODQsMC4yNzgsMi42MDEsMC40MzksMy45NiwwLjM4MSAgIGM4LjYyMi0wLjM5MywxNS4yODgtNy42ODQsMTQuODk4LTE2LjMwN2MtMC4xNzUtMy44NjgtMS43OC03LjI5Mi00LjI2LTkuOTJjMjAuMDA3LTEzLjEwNyw0Mi45NjgtMTQuNjEsNTIuMzc1LTYuMDE2bDAuMzU5LDAuMDI1ICAgQzM1MS42MjUsNC45NywzMTYuNDkzLDguNDc2LDI5NC42MzEsMzIuNHoiLz4mI3hhOyAgICA8L2c+JiN4YTsgICAgPGc+JiN4YTsgICAgICA8cGF0aCBmaWxsPSIjRkZGRkZGIiBkPSJNNzYuMjA1LDI1MS4zODFjLTAuMTg0LTAuMTktMC4zNzEtMC40MDYtMC41NjItMC41OThjMC4xMjEsMC4xMjUsMC4yMzUsMC4yNzksMC4zNzgsMC40MDdMNzYuMjA1LDI1MS4zODF6Ii8+JiN4YTsgICAgICA8cGF0aCBmaWxsPSIjRkZGRkZGIiBkPSJNNzYuODk0LDE3Mi41MmMtMjEuNjYzLDIzLjY5NC0yMi4xMTQsNTguNTQxLTEuMjUxLDc4LjI2NGMtMTAuMzEzLTkuOTM1LTEwLjA5Mi0zMC42MDgsMC4zMzEtNTAuMzg3ICAgYzEuMzQ1LTEuNzc4LDUuMjMxLTUuOTYxLDEwLjkwNi00LjA1NWMwLjU2NSwwLjE5NSwwLjk0NiwwLjI0MiwxLjE2NywwLjIxMmMxLjI4MywwLjI3NSwyLjYwMywwLjQ0LDMuOTU5LDAuMzc3ICAgYzguNjIzLTAuMzkyLDE1LjI4OC03LjY4NCwxNC44OTktMTYuMzAzYy0wLjE3OS0zLjg2Ny0xLjc4Mi03LjI5Ni00LjI1Mi05LjkyYzE5Ljk5NS0xMy4xMDcsNDIuOTU5LTE0LjYxNyw1Mi4zNjYtNi4wMjEgICBsMC4zNTUsMC4wM0MxMzMuODkxLDE0NS4wODYsOTguNzUxLDE0OC41OTEsNzYuODk0LDE3Mi41MnoiLz4mI3hhOyAgICA8L2c+JiN4YTsgICAgPGc+JiN4YTsgICAgICA8cGF0aCBmaWxsPSIjRkZGRkZGIiBkPSJNMzA2LjcwMSwzNzAuMDE1Yy0wLjE4Ny0wLjE5MS0wLjM3NC0wLjQwNC0wLjU2NC0wLjU5NGMwLjExNywwLjEyNSwwLjIzNywwLjI3OSwwLjM3OCwwLjQwMiAgIEwzMDYuNzAxLDM3MC4wMTV6Ii8+JiN4YTsgICAgICA8cGF0aCBmaWxsPSIjRkZGRkZGIiBkPSJNMzA3LjM5LDI5MS4xNDVjLTIxLjY2NiwyMy43MDQtMjIuMTE4LDU4LjU1My0xLjI1NCw3OC4yNzZjLTEwLjMxNy05LjkzNS0xMC4wOS0zMC42MTEsMC4zMzEtNTAuMzg4ICAgYzEuMzQ0LTEuNzgxLDUuMjI3LTUuOTYsMTAuOTA2LTQuMDUzYzAuNTY4LDAuMTg5LDAuOTQxLDAuMjQyLDEuMTY2LDAuMjEyYzEuMjgyLDAuMjc3LDIuNjA1LDAuNDQsMy45NjMsMC4zODEgICBjOC42MTctMC4zOTYsMTUuMjgtNy42OTIsMTQuODkxLTE2LjMyYy0wLjE3Ni0zLjg2NC0xLjc4MS03LjI4OC00LjI1Mi05LjkxN2MyMC4wMDItMTMuMTAzLDQyLjk1OS0xNC42MSw1Mi4zNy02LjAxNmwwLjM1NSwwLjAyOSAgIEMzNjQuMzgzLDI2My43MTgsMzI5LjI0MSwyNjcuMjI2LDMwNy4zOSwyOTEuMTQ1eiIvPiYjeGE7ICAgIDwvZz4mI3hhOyAgICA8Zz4mI3hhOyAgICAgIDx0ZXh0IGZpbGw9IiNGRkZGRkYiIGZvbnQtd2VpZ2h0PSJib2xkIiBmb250LXNpemU9IjExMiIgZm9udC1mYW1pbHk9IlZlcmRhbmEiIHg9IjQ0IiB5PSI0OTgiIHRyYW5zZm9ybT0ic2NhbGUoMC44MywxKSI+Uzx0c3BhbiBrZXJuaW5nPSItOSI+UDwvdHNwYW4+QTx0c3BhbiBrZXJuaW5nPSItMyI+UjwvdHNwYW4+UUw8L3RleHQ+JiN4YTsgICAgPC9nPiYjeGE7PC9zdmc+;" vertex="1" parent="JRmcm6AJMAGdNBxj4xyR-1">
          <mxGeometry x="370" y="120" width="46.1" height="50" as="geometry" />
        </mxCell>
      </root>
    </mxGraphModel>
  </diagram>
  <diagram name="graphql" id="qR85Ul6I6SGWS718SmYa">
    <mxGraphModel dx="679" dy="364" grid="1" gridSize="10" guides="1" tooltips="1" connect="1" arrows="1" fold="1" page="1" pageScale="1" pageWidth="850" pageHeight="1100" math="0" shadow="0">
      <root>
        <mxCell id="JnMmyK5zO2F4YVO3gQco-0" />
        <mxCell id="JnMmyK5zO2F4YVO3gQco-1" parent="JnMmyK5zO2F4YVO3gQco-0" />
        <mxCell id="JnMmyK5zO2F4YVO3gQco-2" value="add owner" style="ellipse;whiteSpace=wrap;html=1;fillColor=#d5e8d4;strokeColor=none;" vertex="1" parent="JnMmyK5zO2F4YVO3gQco-1">
          <mxGeometry x="80" y="156" width="130" height="45" as="geometry" />
        </mxCell>
        <mxCell id="JnMmyK5zO2F4YVO3gQco-6" value="Pets with owner" style="ellipse;whiteSpace=wrap;html=1;fillColor=#d5e8d4;strokeColor=none;" vertex="1" parent="JnMmyK5zO2F4YVO3gQco-1">
          <mxGeometry x="445" y="158.5" width="105" height="42.5" as="geometry" />
        </mxCell>
        <mxCell id="JnMmyK5zO2F4YVO3gQco-7" value="All owners and pets" style="ellipse;whiteSpace=wrap;html=1;fillColor=#d5e8d4;strokeColor=none;" vertex="1" parent="JnMmyK5zO2F4YVO3gQco-1">
          <mxGeometry x="442.5" y="231" width="105" height="45" as="geometry" />
        </mxCell>
        <mxCell id="JnMmyK5zO2F4YVO3gQco-8" value="change owner" style="ellipse;whiteSpace=wrap;html=1;fillColor=#d5e8d4;strokeColor=none;" vertex="1" parent="JnMmyK5zO2F4YVO3gQco-1">
          <mxGeometry x="80" y="231" width="130" height="45" as="geometry" />
        </mxCell>
        <mxCell id="c4jABhGAmXEH78bQ-H6w-1" value="Queries" style="text;html=1;whiteSpace=wrap;strokeColor=none;fillColor=none;align=center;verticalAlign=middle;rounded=0;" vertex="1" parent="JnMmyK5zO2F4YVO3gQco-1">
          <mxGeometry x="465" y="110" width="60" height="30" as="geometry" />
        </mxCell>
        <mxCell id="c4jABhGAmXEH78bQ-H6w-2" value="Mutations" style="text;html=1;whiteSpace=wrap;strokeColor=none;fillColor=none;align=center;verticalAlign=middle;rounded=0;" vertex="1" parent="JnMmyK5zO2F4YVO3gQco-1">
          <mxGeometry x="115" y="110" width="60" height="30" as="geometry" />
        </mxCell>
        <mxCell id="qsIe-KxzMncQO-hP4voR-0" value="" style="shape=image;verticalLabelPosition=bottom;labelBackgroundColor=default;verticalAlign=top;aspect=fixed;imageAspect=0;editableCssRules=.*;image=data:image/svg+xml,PHN2ZyB0aXRsZT0iR3JhcGhRTCIgY2xhc3M9Im5leHRyYS1sb2dvIGgtNiIgdmlld0JveD0iNS41IDAgMzU2LjE4ODk5NTM2MTMyODEgOTkuOTk5OTkyMzcwNjA1NDciIHN0eWxlPSJmaWxsOmNvbG9yKGRpc3BsYXktcDMgLjg4MjQgMCAuNTk2MSkiIHhtbG5zPSJodHRwOi8vd3d3LnczLm9yZy8yMDAwL3N2ZyIgd2lkdGg9IjM1Ni4xODg5OTUzNjEzMjgxIiBoZWlnaHQ9Ijk5Ljk5OTk5MjM3MDYwNTQ3Ij48cGF0aCBjbGlwLXJ1bGU9ImV2ZW5vZGQiIGQ9Im01MCA2LjQ2OCAzNy43IDIxLjc2NnY0My41MzJMNTAgOTMuNTMyIDEyLjMgNzEuNzY2VjI4LjIzNHpNMTYuNTMgMzAuNjc2djMxLjk3NmwyNy42OTItNDcuOTY0ek01MCAxMy4xNCAxOC4wNzggNjguNDNoNjMuODQ0em0yNy42OTIgNTkuNTJIMjIuMzA4TDUwIDg4LjY0OHptNS43NzgtMTAuMDA4TDU1Ljc3OCAxNC42ODggODMuNDcgMzAuNjc2eiIgZmlsbC1ydWxlPSJldmVub2RkIi8+PGNpcmNsZSByPSI4LjkxIiBjeT0iMjkuNDUiIGN4PSIxNC40MSIvPjxjaXJjbGUgcj0iOC45MSIgY3k9IjcwLjU0NSIgY3g9IjE0LjQxIi8+PGNpcmNsZSByPSI4LjkxIiBjeT0iOTEuMDkiIGN4PSI1MCIvPjxjaXJjbGUgcj0iOC45MSIgY3k9IjcwLjU0NSIgY3g9Ijg1LjU4NSIvPjxjaXJjbGUgcj0iOC45MSIgY3k9IjI5LjQ1NSIgY3g9Ijg1LjU4NSIvPjxjaXJjbGUgcj0iOC45MSIgY3k9IjguOTEiIGN4PSI1MCIvPjxwYXRoIGQ9Ik0xMzguODc1IDcxLjYyNXEtNy44MTIgMC0xMi4xMjUtNC41dC00LjU2Mi0xMi4wNjJxLS4wNjMtMS44NzYtLjA2My01LjkzOHQuMDYzLTUuOTM3cS4yNS03LjU2MyA0LjU2Mi0xMi4wNjN0MTIuMTI1LTQuNXE1LjMxMyAwIDguOTM4IDIgMy42MjQgMiA1LjM3NSA0Ljc1IDEuODEyIDIuNjg4IDEuOTM3IDQuODEzdi4xMjRxMCAuNTAxLS4zNzUuODEzLS4zNzUuMzEzLS45MzguMzEzaC0xLjM3NHEtLjU2MiAwLS44MTMtLjI1dC0uNS0xcS0xLjA2Mi0zLjMxMy00LjEyNS01LjU2My0zLTIuMjUtOC4xMjUtMi4yNS01LjgxMiAwLTkuMTg3IDMuMTg4LTMuMzEzIDMuMTg3LTMuNTYzIDkuOTM3LS4wNjIgMS44NzUtLjA2MiA1LjYyNXQuMDYyIDUuNjI1cS4yNSA2Ljc1IDMuNTYzIDkuOTM4IDMuMzc1IDMuMTg2IDkuMTg3IDMuMTg3IDUuODEzIDAgOS4zNzUtMy4zMTIgMy41NjItMy4zMTQgMy41NjItOS44MTN2LTMuMTg3aC0xMC44NzRxLS42MjUgMC0xLS4zNzZhMS41OCAxLjU4IDAgMCAxLS4zNzUtMS4wNjJ2LS44NzVxMC0uNjI1LjM3NS0xIC4zNzUtLjQzNyAxLS40MzdoMTMuMzc0cS42ODggMCAxLjA2My4zNzQuMzc1LjM3Ni4zNzUgMS4wNjN2NS41cTAgNC45OTktMiA4LjgxMy0yIDMuODExLTUuODEyIDUuOTM3LTMuODEzIDIuMTI1LTkuMDYzIDIuMTI1TTE2NS45NDEgNzFxLS42MjUgMC0xLS4zNzV0LS4zNzUtMVYzOS45MzhxMC0uNjI1LjM3NS0xIC4zNzUtLjQzOCAxLS40MzhoMXEuNjI1IDAgMSAuNDM4LjQzOC4zNzUuNDM4IDF2Mi44NzRxMi4yNS00LjMxMiA4LjUtNC4zMTJoMi4zMTJxLjYyNSAwIDEgLjM3NXQuMzc1IDF2Ljg3NXEwIC42MjUtLjM3NSAxdC0xIC4zNzVoLTIuNjg3cS0zLjc1IDAtNS45MzggMi4xODgtMi4xODcgMi4xODctMi4xODcgNS45Mzd2MTkuMzc1cTAgLjYyNS0uNDM4IDEtLjM3NS4zNzUtMSAuMzc1ek0xOTQuNTU3IDcxLjYyNXEtMyAwLTUuNTYzLTEuMjVUMTg0Ljg2OSA2N3EtMS41LTIuMTI2LTEuNS00LjY4NyAwLTQuMTI1IDMuMzEzLTYuNzUgMy4zNzQtMi42MjUgOS4wNjItMy4zNzZsOS44NzUtMS4zNzR2LTIuMTg4cTAtMy40MzgtMi4xMjUtNS4yNS0yLjA2My0xLjg3NS02LjM3NS0xLjg3NS0zLjE4OCAwLTUuMjUgMS4yNS0yIDEuMjUtMi41NjIgMy0uMjUuNzUtLjYyNSAxLjA2My0uMzEzLjI1LS44NzUuMjVoLS44NzVxLS41NjMgMC0xLS4zNzZhMS41IDEuNSAwIDAgMS0uMzc1LTFxMC0xLjM3NCAxLjI1LTMuMTg3IDEuMjUtMS44NzUgMy44NzUtMy4yNXQ2LjQzNy0xLjM3NXE2LjY4NyAwIDkuNSAzLjE4OCAyLjgxMyAzLjE4NyAyLjgxMyA3Ljc1djIwLjgxMnEwIC42MjUtLjM3NSAxLS4zNzYuMzc1LTEgLjM3NWgtMS4wNjNxLS42MjUgMC0xLS4zNzV0LS4zNzUtMXYtMi45MzdxLTEuMzc1IDIuMDYxLTQuMDYyIDMuNS0yLjYyNiAxLjQzNy03IDEuNDM3bS42MjUtMy42MjVxNC41NjEgMCA3LjUtMyAyLjkzNy0zIDIuOTM3LTguNjI1VjU0LjI1bC04LjA2MiAxLjEyNXEtNS4xMjUuNjg3LTcuNzUgMi4zNzVUMTg3LjE4MiA2MnEwIDIuODc1IDIuMzc1IDQuNDM4UTE5MS45OTQgNjggMTk1LjE4MiA2OE0yMjAuNzUyIDgyLjg3NXEtLjYyNCAwLTEtLjM3NS0uMzc1LS4zNzUtLjM3NS0xVjM5Ljg3NXEwLS42MjUuMzc1LTEgLjM3Ni0uMzc1IDEtLjM3NWgxLjA2M3EuNjI1IDAgMSAuMzc1dC4zNzUgMXYyLjkzOHEzLjYyNi00LjkzOCAxMC41LTQuOTM4IDYuNzUgMCA5LjkzNyA0LjMxMyAzLjI1IDQuMjUgMy40MzggMTAuNS4wNjMuNjI0LjA2MiAyLjA2MiAwIDEuNDM3LS4wNjIgMi4wNjMtLjE4NyA2LjI1LTMuNDM4IDEwLjU2Mi0zLjE4NyA0LjI1LTkuOTM3IDQuMjUtNi44MTMgMC0xMC41LTQuOTM3VjgxLjVxMCAuNjI1LS4zNzUgMXQtMSAuMzc1ek0yMzMuMzE1IDY4cTUuMDYyIDAgNy4zNzUtMy4xODcgMi4zNzUtMy4yNSAyLjU2Mi04LjMxMy4wNjMtLjYyNS4wNjMtMS43NSAwLTUuODEzLTIuMjUtOS41LTIuMjUtMy43NS03Ljc1LTMuNzUtNC45MzggMC03LjQzOCAzLjMxMy0yLjUgMy4yNS0yLjY4NyA3LjY4N2wtLjA2MyAyLjQzOC4wNjMgMi40MzdhMTIuOCAxMi44IDAgMCAwIDEuMTg3IDUuMTI1cTEuMTI1IDIuMzc1IDMuMzc1IDMuOTM4UTIzMC4wMDIgNjggMjMzLjMxNSA2OE0yNTcuMDY4IDcxcS0uNjI1IDAtMS0uMzc1dC0uMzc1LTFWMjhxMC0uNjI1LjM3NS0xdDEtLjM3NWgxLjA2M3EuNjI1IDAgMSAuMzc1dC4zNzUgMXYxNC44MTNxMS44NzUtMi40MzkgNC4yNS0zLjY4OCAyLjQzNy0xLjI1IDYuMjUtMS4yNSA2LjEyNSAwIDkuNDM3IDMuOTM4IDMuMzEzIDMuODc0IDMuMzEzIDEwLjA2MnYxNy43NXEwIC42MjUtLjM3NSAxdC0xIC4zNzVoLTEuMDYzcS0uNjI1IDAtMS0uMzc1dC0uMzc1LTFWNTIuMTg4cTAtNS4wNjMtMi41LTcuODc2LTIuNDM3LTIuODEyLTcuMDYyLTIuODEyLTQuNSAwLTcuMTg4IDIuODc1LTIuNjg3IDIuODEzLTIuNjg3IDcuODEzdjE3LjQzN3EwIC42MjUtLjM3NSAxdC0xIC4zNzV6TTMyMS42ODIgNzUuMDYzcS0uOTM4IDAtMi0xLjQzOGwtMi43NS0zLjgxMnEtMy43NSAxLjgxMi04Ljc1IDEuODEyLTE2LjA2MiAwLTE2LjUtMTcuMjUtLjA2Mi0xLjg3NS0uMDYyLTUuMjV0LjA2Mi01LjI1cS4yNS04LjUgNC42MjUtMTIuODc1dDExLjg3NS00LjM3NVQzMjAuMDU3IDMxdDQuNjI1IDEyLjg3NXEuMTI1IDMuNzUuMTI1IDUuMjV0LS4xMjUgNS4yNXEtLjMxMiA4LjkzNy00LjU2MiAxMy4xMjVsNCA1LjYyNXEuMTg3LjM3Ni4xODcuNjg4YTEuMiAxLjIgMCAwIDEtLjM3NS44NzQgMS4yIDEuMiAwIDAgMS0uODc1LjM3NnptLTEzLjUtNy4xODhxNS42MjUgMCA4LjkzOC0zLjM3NSAzLjM3NS0zLjQzNyAzLjYyNS0xMC40MzcuMTI1LTMuNzUuMTI1LTQuOTM4dC0uMTI1LTQuOTM3cS0uMjUtNy0zLjYyNS0xMC4zNzYtMy4zNzUtMy40MzctOC45MzgtMy40MzctNS41NjIgMC04LjkzNyAzLjQzOC0zLjM3NSAzLjM3NS0zLjYyNSAxMC4zNzQtLjA2MyAxLjg3NS0uMDYzIDQuOTM4dC4wNjMgNC45MzhxLjI1IDYuOTk5IDMuNTYyIDEwLjQzNyAzLjM3NSAzLjM3NSA5IDMuMzc1TTMzNi4xMjYgNzFxLS42MjUgMC0xLS4zNzV0LS4zNzUtMXYtNDFxMC0uNjI1LjM3NS0xdDEtLjM3NWgxLjE4OHEuNjI1IDAgMSAuMzc1dC4zNzUgMVY2Ny4yNWgyMS41NjJxLjY4OCAwIDEuMDYzLjM3NXQuMzc1IDEuMDYzdi45MzdxMCAuNjI1LS40MzggMS0uMzc1LjM3NS0xIC4zNzV6Ii8+PC9zdmc+;" vertex="1" parent="JnMmyK5zO2F4YVO3gQco-1">
          <mxGeometry x="255.005" y="110.00000000000001" width="146" height="41.01" as="geometry" />
        </mxCell>
        <mxCell id="qsIe-KxzMncQO-hP4voR-1" value="" style="group" vertex="1" connectable="0" parent="JnMmyK5zO2F4YVO3gQco-1">
          <mxGeometry x="222.38" y="160.5" width="211.25" height="129.5" as="geometry" />
        </mxCell>
        <mxCell id="JnMmyK5zO2F4YVO3gQco-3" value="" style="rounded=1;whiteSpace=wrap;html=1;fillColor=#d5e8d4;strokeColor=none;" vertex="1" parent="qsIe-KxzMncQO-hP4voR-1">
          <mxGeometry x="75.62" y="14.5" width="60" height="80" as="geometry" />
        </mxCell>
        <mxCell id="JnMmyK5zO2F4YVO3gQco-4" value="" style="shape=image;editableCssRules=.*;verticalLabelPosition=bottom;labelBackgroundColor=default;verticalAlign=top;aspect=fixed;imageAspect=0;image=data:image/svg+xml,PHN2ZyB4bWxucz0iaHR0cDovL3d3dy53My5vcmcvMjAwMC9zdmciIHZpZXdCb3g9Ii0wLjUgLTAuNSA0MC45NDEgNDUuMDg4IiBoZWlnaHQ9IjQ1LjA4OCIgd2lkdGg9IjQwLjk0MSIgc3R5bGU9ImNvbG9yLXNjaGVtZTogbGlnaHQgZGFyazsiPiYjeGE7CSAgPHN0eWxlIHR5cGU9InRleHQvY3NzIj4uc3QwIHsgc3RvcC1jb2xvcjogbGlnaHQtZGFyayhyZ2IoMCwgMCwgMCksIHJnYigxNTUsIDExOCwgMjU1KSk7IH0gLnN0MSB7IHN0b3AtY29sb3I6IGxpZ2h0LWRhcmsocmdiKDAsIDAsIDApLCByZ2IoNzEsIDEyLCAyMzcpKTsgfSA8L3N0eWxlPiYjeGE7CTxkZWZzPiYjeGE7CQk8bGluZWFyR3JhZGllbnQgZ3JhZGllbnRVbml0cz0idXNlclNwYWNlT25Vc2UiIHkyPSIzNy43MzgiIHgyPSIzNy42MDIiIHkxPSI1LjkiIHgxPSIzLjIxMyIgaWQ9IkEiPiYjeGE7CQkJPHN0b3AgY2xhc3M9InN0MCIvPiYjeGE7CQkJPHN0b3AgY2xhc3M9InN0MSIgb2Zmc2V0PSIxIi8+JiN4YTsJCTwvbGluZWFyR3JhZGllbnQ+JiN4YTsJPC9kZWZzPiYjeGE7CTxwYXRoIGZpbGw9InVybCgjQSkiIGQ9Ik0zOC4xNDcgNC4wODhjLjcwNi41ODggMS4yNjUgMS4yMzUgMS42NzYgMS45NDEuNDEyLjY0Ny42MTggMS40NDEuNjE4IDIuMzgydjI3LjM1M2MwIC44ODItLjIzNSAxLjY3Ni0uNzA2IDIuMzgycy0xIDEuMzUzLTEuNTg4IDEuOTQxYy0uNTI5LjQ3MS0xLjIwNi45MTItMi4wMyAxLjMyNC0uNzY1LjQxMi0xLjU4OC43OTQtMi40NzEgMS4xNDctMS44MjMuNzA2LTMuOTEyIDEuMjA2LTYuMjY1IDEuNS0yLjI5NC4zNTMtNC43NjUuNTI5LTcuNDEyLjUyOXMtNS4xNDctLjE3Ni03LjUtLjUyOWMtMi4yOTQtLjI5NC00LjM1My0uNzk0LTYuMTc2LTEuNWwtMi40NzEtLjk3YTguNjQgOC42NCAwIDAgMS0yLjAyOS0xLjVDLjI2NSAzOC44NTMtLjUgMzcuNDEyLS41IDM1Ljc2NVY4LjQxMmMwLS45NDEuMjM1LTEuNzM1LjcwNi0yLjM4Mi40NzEtLjcwNiAxLTEuMzUzIDEuNTg4LTEuOTQxIDEuMTc2LTEgMi42NzYtMS44NTMgNC41LTIuNTU5QzguMTE4Ljg4MiAxMC4xNzYuMzgyIDEyLjQ3MS4wMjljMi4zNTMtLjM1MyA0Ljg1My0uNTI5IDcuNS0uNTI5czUuMTE4LjE3NiA3LjQxMi41MjljMi4zNTMuMzUzIDQuNDQxLjg1MyA2LjI2NSAxLjUuODgyLjM1MyAxLjcwNi43MzUgMi40NzEgMS4xNDcuODI0LjM1MyAxLjUuODI0IDIuMDMgMS40MTJ6bS0yLjIwNiAxOS4zMjRjLTIuNzY1Ljk0MS01LjM4MiAxLjY3Ni03Ljg1MyAyLjIwNi0yLjQxMi41MjktNS4xMTguNzk0LTguMTE4Ljc5NC0yLjY0NyAwLTUuMTQ3LS4xNzctNy41LS41MjktMi4yOTQtLjM1My00LjM1My0uODUzLTYuMTc2LTEuNS0uOTQxLS4yOTQtMS43MDYtLjYxOC0yLjI5NC0uOTcxdjMuMTc3bC4xNzYuMzUzYy4wNTkuMTE4LjIzNS4zMjQuNTI5LjYxOC43NjUuNzA2IDEuNzk0IDEuMjk0IDMuMDg4IDEuNzY1IDEuMzUzLjQ3MSAyLjc2NS44NTMgNC4yMzUgMS4xNDdsNC4zMjQuNTI5IDMuNjE4LjE3NmE1MC40NSA1MC40NSAwIDAgMCA3Ljk0MS0uNjE4YzIuNTg4LS40NyA1LjAyOS0xLjQ3IDcuMzIzLTMgLjM1My0uMjM1LjU1OS0uNDQxLjYxOC0uNjE4LjA1OS0uMTE4LjA4OC0uMjM1LjA4OC0uMzUzem0wLTkuMDg4Yy0yLjc2NS45NDEtNS4zODIgMS42NzYtNy44NTMgMi4yMDYtMi40MTIuNTI5LTUuMTE4Ljc5NC04LjExOC43OTQtLjg4MiAwLTIuMDU5LS4wNTktMy41MjktLjE3NmwtNC41ODgtLjUyOS00LjUtLjg4MmMtMS40MTItLjQxMi0yLjUyOS0uODgyLTMuMzUzLTEuNDEyVjE3LjVjMCAuMDU5LjAyOS4xNDcuMDg4LjI2NS4xMTguMDU5LjIwNi4xNDcuMjY1LjI2NWwuMzUzLjM1M2MuNzY1Ljc2NSAxLjc5NCAxLjM4MiAzLjA4OCAxLjg1MyAxLjM1My40NzEgMi43NjUuODUzIDQuMjM1IDEuMTQ3bDQuMzI0LjUyOSAzLjYxOC4xNzZjMi43MDYgMCA1LjM1My0uMjM1IDcuOTQxLS43MDZzNS4wMjktMS40NzEgNy4zMjMtM2MuMzUzLS4yMzUuNTU5LS40NDEuNjE4LS42MTguMDU5LS4xMTguMDg4LS4yMDYuMDg4LS4yNjV6TTQuNzA2IDcuNTI5Yy0uMjk0LjExOC0uNS4zMjQtLjYxOC42MTgtLjA1OS4xMTgtLjA4OC4yMDYtLjA4OC4yNjVzLjAyOS4xNDcuMDg4LjI2NWMuMTE4LjA1OS4yMDYuMTQ3LjI2NS4yNjVsLjM1My4zNTNjLjc2NS43NjUgMS43OTQgMS4zODIgMy4wODggMS44NTMgMS4zNTMuNDcxIDIuNzY1Ljg1MyA0LjIzNSAxLjE0N2w0LjMyNC41MjkgMy42MTguMTc2YzIuNDEyIDAgNC42NDctLjE0NyA2LjcwNi0uNDQxIDIuMDU5LS4zNTMgMy44NTMtLjgyNCA1LjM4Mi0xLjQxMmwzLjE3Ni0xLjg1M2MuMzUzLS4yMzUuNTU5LS40NDEuNjE4LS42MTguMDU5LS4xMTguMDg4LS4yMDYuMDg4LS4yNjUtLjA1OS0uMDU5LS4xMTctLjE0Ny0uMTc2LS4yNjVzLS4yMzUtLjMyNC0uNTI5LS42MThjLS43NjUtLjc2NS0xLjgyMy0xLjM4Mi0zLjE3Ni0xLjg1My0xLjI5NC0uNDcxLTIuNjc2LS44MjQtNC4xNDctMS4wNTktMS40NzEtLjI5NC0yLjk0MS0uNS00LjQxMi0uNjE4bC0zLjUyOS0uMTc2Yy0yLjcwNiAwLTUuMzUzLjIzNS03Ljk0MS43MDZTNyA2IDQuNzA2IDcuNTI5em0zMC41MjkgMjkuMTE4Yy4zNTMtLjIzNS41NTktLjQ0MS42MTgtLjYxOC4wNTktLjExNy4wODgtLjIwNi4wODgtLjI2NVYzMi41Yy0uMDU5LjA1OS0uMTE3LjA4OC0uMTc2LjA4OHMtLjA4OC4wMjktLjA4OC4wODhIMzUuNWwtLjE3Ni4wODhjLS4wNTkuMDU5LS4xMTguMDg4LS4xNzYuMDg4LTIuNjQ3IDEtNS4xNDcgMS43MDYtNy41IDIuMTE4LTIuMjk0LjM1My00Ljg1My41MjktNy42NzYuNTI5LS44ODIgMC0yLjA1OS0uMDU5LTMuNTI5LS4xNzZsLTQuNTg4LS41MjktNC41LS44ODJDNS45NDEgMzMuNSA0LjgyNCAzMy4wMjkgNCAzMi41djMuMjY1YzAgLjA1OS4wMjkuMTQ3LjA4OC4yNjUuMDU5LjE3Ni4yNjUuMzgzLjYxOC42MTguNzY1Ljc2NSAxLjc5NCAxLjM4MiAzLjA4OCAxLjg1MyAxLjM1My40NzEgMi43NjUuODUzIDQuMjM1IDEuMTQ3bDQuMzI0LjUyOSAzLjYxOC4wODhjMi43MDYgMCA1LjM1My0uMjA2IDcuOTQxLS42MTggMi41ODgtLjQ3MSA1LjAyOS0xLjQ3IDcuMzIzLTN6Ii8+JiN4YTs8L3N2Zz4=;" vertex="1" parent="qsIe-KxzMncQO-hP4voR-1">
          <mxGeometry x="85.12" y="45" width="41" height="45" as="geometry" />
        </mxCell>
        <mxCell id="JnMmyK5zO2F4YVO3gQco-5" value="my doctor&#39;s&lt;br&gt;&amp;lt;database&amp;gt;" style="text;html=1;align=center;verticalAlign=middle;resizable=0;points=[];autosize=1;strokeColor=none;fillColor=none;" vertex="1" parent="qsIe-KxzMncQO-hP4voR-1">
          <mxGeometry x="60.620000000000005" y="89.5" width="90" height="40" as="geometry" />
        </mxCell>
        <mxCell id="JnMmyK5zO2F4YVO3gQco-9" value="&lt;font style=&quot;font-size: 24px;&quot;&gt;🧑‍⚕️&lt;/font&gt;" style="text;html=1;align=center;verticalAlign=middle;whiteSpace=wrap;rounded=0;" vertex="1" parent="qsIe-KxzMncQO-hP4voR-1">
          <mxGeometry x="90.62" y="17" width="30" height="30" as="geometry" />
        </mxCell>
        <mxCell id="JnMmyK5zO2F4YVO3gQco-10" value="" style="ellipse;shape=cloud;whiteSpace=wrap;html=1;fillStyle=solid;fillColor=#989898;strokeColor=none;opacity=80;" vertex="1" parent="qsIe-KxzMncQO-hP4voR-1">
          <mxGeometry width="211.25" height="124" as="geometry" />
        </mxCell>
      </root>
    </mxGraphModel>
  </diagram>
  <diagram name="use-case-overview" id="g4zEvVsHw3ZqJomdNqmh">
    <mxGraphModel dx="570" dy="306" grid="1" gridSize="10" guides="1" tooltips="1" connect="1" arrows="1" fold="1" page="1" pageScale="1" pageWidth="850" pageHeight="1100" math="0" shadow="0">
      <root>
        <mxCell id="XkppEgYD-cl_Ov_Yzgq1-0" />
        <mxCell id="XkppEgYD-cl_Ov_Yzgq1-1" parent="XkppEgYD-cl_Ov_Yzgq1-0" />
        <mxCell id="XkppEgYD-cl_Ov_Yzgq1-3" value="" style="rounded=1;whiteSpace=wrap;html=1;fillColor=#d5e8d4;strokeColor=none;" vertex="1" parent="XkppEgYD-cl_Ov_Yzgq1-1">
          <mxGeometry x="298" y="213.5" width="60" height="80" as="geometry" />
        </mxCell>
        <mxCell id="XkppEgYD-cl_Ov_Yzgq1-4" value="" style="shape=image;editableCssRules=.*;verticalLabelPosition=bottom;labelBackgroundColor=default;verticalAlign=top;aspect=fixed;imageAspect=0;image=data:image/svg+xml,PHN2ZyB4bWxucz0iaHR0cDovL3d3dy53My5vcmcvMjAwMC9zdmciIHZpZXdCb3g9Ii0wLjUgLTAuNSA0MC45NDEgNDUuMDg4IiBoZWlnaHQ9IjQ1LjA4OCIgd2lkdGg9IjQwLjk0MSIgc3R5bGU9ImNvbG9yLXNjaGVtZTogbGlnaHQgZGFyazsiPiYjeGE7CSAgPHN0eWxlIHR5cGU9InRleHQvY3NzIj4uc3QwIHsgc3RvcC1jb2xvcjogbGlnaHQtZGFyayhyZ2IoMCwgMCwgMCksIHJnYigxNTUsIDExOCwgMjU1KSk7IH0gLnN0MSB7IHN0b3AtY29sb3I6IGxpZ2h0LWRhcmsocmdiKDAsIDAsIDApLCByZ2IoNzEsIDEyLCAyMzcpKTsgfSA8L3N0eWxlPiYjeGE7CTxkZWZzPiYjeGE7CQk8bGluZWFyR3JhZGllbnQgZ3JhZGllbnRVbml0cz0idXNlclNwYWNlT25Vc2UiIHkyPSIzNy43MzgiIHgyPSIzNy42MDIiIHkxPSI1LjkiIHgxPSIzLjIxMyIgaWQ9IkEiPiYjeGE7CQkJPHN0b3AgY2xhc3M9InN0MCIvPiYjeGE7CQkJPHN0b3AgY2xhc3M9InN0MSIgb2Zmc2V0PSIxIi8+JiN4YTsJCTwvbGluZWFyR3JhZGllbnQ+JiN4YTsJPC9kZWZzPiYjeGE7CTxwYXRoIGZpbGw9InVybCgjQSkiIGQ9Ik0zOC4xNDcgNC4wODhjLjcwNi41ODggMS4yNjUgMS4yMzUgMS42NzYgMS45NDEuNDEyLjY0Ny42MTggMS40NDEuNjE4IDIuMzgydjI3LjM1M2MwIC44ODItLjIzNSAxLjY3Ni0uNzA2IDIuMzgycy0xIDEuMzUzLTEuNTg4IDEuOTQxYy0uNTI5LjQ3MS0xLjIwNi45MTItMi4wMyAxLjMyNC0uNzY1LjQxMi0xLjU4OC43OTQtMi40NzEgMS4xNDctMS44MjMuNzA2LTMuOTEyIDEuMjA2LTYuMjY1IDEuNS0yLjI5NC4zNTMtNC43NjUuNTI5LTcuNDEyLjUyOXMtNS4xNDctLjE3Ni03LjUtLjUyOWMtMi4yOTQtLjI5NC00LjM1My0uNzk0LTYuMTc2LTEuNWwtMi40NzEtLjk3YTguNjQgOC42NCAwIDAgMS0yLjAyOS0xLjVDLjI2NSAzOC44NTMtLjUgMzcuNDEyLS41IDM1Ljc2NVY4LjQxMmMwLS45NDEuMjM1LTEuNzM1LjcwNi0yLjM4Mi40NzEtLjcwNiAxLTEuMzUzIDEuNTg4LTEuOTQxIDEuMTc2LTEgMi42NzYtMS44NTMgNC41LTIuNTU5QzguMTE4Ljg4MiAxMC4xNzYuMzgyIDEyLjQ3MS4wMjljMi4zNTMtLjM1MyA0Ljg1My0uNTI5IDcuNS0uNTI5czUuMTE4LjE3NiA3LjQxMi41MjljMi4zNTMuMzUzIDQuNDQxLjg1MyA2LjI2NSAxLjUuODgyLjM1MyAxLjcwNi43MzUgMi40NzEgMS4xNDcuODI0LjM1MyAxLjUuODI0IDIuMDMgMS40MTJ6bS0yLjIwNiAxOS4zMjRjLTIuNzY1Ljk0MS01LjM4MiAxLjY3Ni03Ljg1MyAyLjIwNi0yLjQxMi41MjktNS4xMTguNzk0LTguMTE4Ljc5NC0yLjY0NyAwLTUuMTQ3LS4xNzctNy41LS41MjktMi4yOTQtLjM1My00LjM1My0uODUzLTYuMTc2LTEuNS0uOTQxLS4yOTQtMS43MDYtLjYxOC0yLjI5NC0uOTcxdjMuMTc3bC4xNzYuMzUzYy4wNTkuMTE4LjIzNS4zMjQuNTI5LjYxOC43NjUuNzA2IDEuNzk0IDEuMjk0IDMuMDg4IDEuNzY1IDEuMzUzLjQ3MSAyLjc2NS44NTMgNC4yMzUgMS4xNDdsNC4zMjQuNTI5IDMuNjE4LjE3NmE1MC40NSA1MC40NSAwIDAgMCA3Ljk0MS0uNjE4YzIuNTg4LS40NyA1LjAyOS0xLjQ3IDcuMzIzLTMgLjM1My0uMjM1LjU1OS0uNDQxLjYxOC0uNjE4LjA1OS0uMTE4LjA4OC0uMjM1LjA4OC0uMzUzem0wLTkuMDg4Yy0yLjc2NS45NDEtNS4zODIgMS42NzYtNy44NTMgMi4yMDYtMi40MTIuNTI5LTUuMTE4Ljc5NC04LjExOC43OTQtLjg4MiAwLTIuMDU5LS4wNTktMy41MjktLjE3NmwtNC41ODgtLjUyOS00LjUtLjg4MmMtMS40MTItLjQxMi0yLjUyOS0uODgyLTMuMzUzLTEuNDEyVjE3LjVjMCAuMDU5LjAyOS4xNDcuMDg4LjI2NS4xMTguMDU5LjIwNi4xNDcuMjY1LjI2NWwuMzUzLjM1M2MuNzY1Ljc2NSAxLjc5NCAxLjM4MiAzLjA4OCAxLjg1MyAxLjM1My40NzEgMi43NjUuODUzIDQuMjM1IDEuMTQ3bDQuMzI0LjUyOSAzLjYxOC4xNzZjMi43MDYgMCA1LjM1My0uMjM1IDcuOTQxLS43MDZzNS4wMjktMS40NzEgNy4zMjMtM2MuMzUzLS4yMzUuNTU5LS40NDEuNjE4LS42MTguMDU5LS4xMTguMDg4LS4yMDYuMDg4LS4yNjV6TTQuNzA2IDcuNTI5Yy0uMjk0LjExOC0uNS4zMjQtLjYxOC42MTgtLjA1OS4xMTgtLjA4OC4yMDYtLjA4OC4yNjVzLjAyOS4xNDcuMDg4LjI2NWMuMTE4LjA1OS4yMDYuMTQ3LjI2NS4yNjVsLjM1My4zNTNjLjc2NS43NjUgMS43OTQgMS4zODIgMy4wODggMS44NTMgMS4zNTMuNDcxIDIuNzY1Ljg1MyA0LjIzNSAxLjE0N2w0LjMyNC41MjkgMy42MTguMTc2YzIuNDEyIDAgNC42NDctLjE0NyA2LjcwNi0uNDQxIDIuMDU5LS4zNTMgMy44NTMtLjgyNCA1LjM4Mi0xLjQxMmwzLjE3Ni0xLjg1M2MuMzUzLS4yMzUuNTU5LS40NDEuNjE4LS42MTguMDU5LS4xMTguMDg4LS4yMDYuMDg4LS4yNjUtLjA1OS0uMDU5LS4xMTctLjE0Ny0uMTc2LS4yNjVzLS4yMzUtLjMyNC0uNTI5LS42MThjLS43NjUtLjc2NS0xLjgyMy0xLjM4Mi0zLjE3Ni0xLjg1My0xLjI5NC0uNDcxLTIuNjc2LS44MjQtNC4xNDctMS4wNTktMS40NzEtLjI5NC0yLjk0MS0uNS00LjQxMi0uNjE4bC0zLjUyOS0uMTc2Yy0yLjcwNiAwLTUuMzUzLjIzNS03Ljk0MS43MDZTNyA2IDQuNzA2IDcuNTI5em0zMC41MjkgMjkuMTE4Yy4zNTMtLjIzNS41NTktLjQ0MS42MTgtLjYxOC4wNTktLjExNy4wODgtLjIwNi4wODgtLjI2NVYzMi41Yy0uMDU5LjA1OS0uMTE3LjA4OC0uMTc2LjA4OHMtLjA4OC4wMjktLjA4OC4wODhIMzUuNWwtLjE3Ni4wODhjLS4wNTkuMDU5LS4xMTguMDg4LS4xNzYuMDg4LTIuNjQ3IDEtNS4xNDcgMS43MDYtNy41IDIuMTE4LTIuMjk0LjM1My00Ljg1My41MjktNy42NzYuNTI5LS44ODIgMC0yLjA1OS0uMDU5LTMuNTI5LS4xNzZsLTQuNTg4LS41MjktNC41LS44ODJDNS45NDEgMzMuNSA0LjgyNCAzMy4wMjkgNCAzMi41djMuMjY1YzAgLjA1OS4wMjkuMTQ3LjA4OC4yNjUuMDU5LjE3Ni4yNjUuMzgzLjYxOC42MTguNzY1Ljc2NSAxLjc5NCAxLjM4MiAzLjA4OCAxLjg1MyAxLjM1My40NzEgMi43NjUuODUzIDQuMjM1IDEuMTQ3bDQuMzI0LjUyOSAzLjYxOC4wODhjMi43MDYgMCA1LjM1My0uMjA2IDcuOTQxLS42MTggMi41ODgtLjQ3MSA1LjAyOS0xLjQ3IDcuMzIzLTN6Ii8+JiN4YTs8L3N2Zz4=;" vertex="1" parent="XkppEgYD-cl_Ov_Yzgq1-1">
          <mxGeometry x="307.5" y="244" width="41" height="45" as="geometry" />
        </mxCell>
        <mxCell id="XkppEgYD-cl_Ov_Yzgq1-9" value="" style="verticalLabelPosition=bottom;sketch=0;html=1;fillColor=#282828;strokeColor=none;verticalAlign=top;pointerEvents=1;align=center;shape=mxgraph.cisco_safe.people_places_things_icons.icon8;" vertex="1" parent="XkppEgYD-cl_Ov_Yzgq1-1">
          <mxGeometry x="377.25" y="106" width="19.5" height="50" as="geometry" />
        </mxCell>
        <mxCell id="XkppEgYD-cl_Ov_Yzgq1-13" value="pet owner" style="text;html=1;align=center;verticalAlign=middle;whiteSpace=wrap;rounded=0;" vertex="1" parent="XkppEgYD-cl_Ov_Yzgq1-1">
          <mxGeometry x="358" y="80" width="60" height="30" as="geometry" />
        </mxCell>
        <mxCell id="XkppEgYD-cl_Ov_Yzgq1-14" value="&lt;font style=&quot;font-size: 14px;&quot;&gt;🐈&lt;/font&gt;" style="text;html=1;align=center;verticalAlign=middle;whiteSpace=wrap;rounded=0;" vertex="1" parent="XkppEgYD-cl_Ov_Yzgq1-1">
          <mxGeometry x="375.25" y="128" width="21.5" height="20" as="geometry" />
        </mxCell>
        <mxCell id="XkppEgYD-cl_Ov_Yzgq1-15" value="" style="verticalLabelPosition=bottom;sketch=0;html=1;fillColor=#282828;strokeColor=none;verticalAlign=top;pointerEvents=1;align=center;shape=mxgraph.cisco_safe.people_places_things_icons.icon8;" vertex="1" parent="XkppEgYD-cl_Ov_Yzgq1-1">
          <mxGeometry x="438.25" y="216" width="19.5" height="50" as="geometry" />
        </mxCell>
        <mxCell id="XkppEgYD-cl_Ov_Yzgq1-19" value="&lt;font style=&quot;font-size: 14px;&quot;&gt;💉&lt;/font&gt;" style="text;html=1;align=center;verticalAlign=middle;whiteSpace=wrap;rounded=0;" vertex="1" parent="XkppEgYD-cl_Ov_Yzgq1-1">
          <mxGeometry x="438.25" y="240" width="17.5" height="20" as="geometry" />
        </mxCell>
        <mxCell id="XkppEgYD-cl_Ov_Yzgq1-20" value="&lt;div&gt;other doctor&lt;/div&gt;" style="text;html=1;align=center;verticalAlign=middle;whiteSpace=wrap;rounded=0;" vertex="1" parent="XkppEgYD-cl_Ov_Yzgq1-1">
          <mxGeometry x="418" y="186" width="60" height="30" as="geometry" />
        </mxCell>
        <mxCell id="XkppEgYD-cl_Ov_Yzgq1-22" value="&lt;font style=&quot;font-size: 24px;&quot;&gt;🧑‍⚕️&lt;/font&gt;" style="text;html=1;align=center;verticalAlign=middle;whiteSpace=wrap;rounded=0;" vertex="1" parent="XkppEgYD-cl_Ov_Yzgq1-1">
          <mxGeometry x="313" y="216" width="30" height="30" as="geometry" />
        </mxCell>
        <mxCell id="5XO8yV0PLf3i7aMNYioD-0" value="regular doctor" style="text;html=1;align=center;verticalAlign=middle;whiteSpace=wrap;rounded=0;" vertex="1" parent="XkppEgYD-cl_Ov_Yzgq1-1">
          <mxGeometry x="298" y="186" width="60" height="30" as="geometry" />
        </mxCell>
      </root>
    </mxGraphModel>
  </diagram>
</mxfile>
